<?xml version="1.0" encoding="UTF-8"?>
<svg width="15px" height="15px" viewBox="0 0 15 15" version="1.1" xmlns="http://www.w3.org/2000/svg" xmlns:xlink="http://www.w3.org/1999/xlink">
    <!-- Generator: Sketch 53.1 (72631) - https://sketchapp.com -->
    <title>Group 17</title>
    <desc>Created with Sketch.</desc>
    <g id="Mar-2019" stroke="none" stroke-width="1" fill="none" fill-rule="evenodd">
        <g id="Home-Banner" transform="translate(-885.000000, -18.000000)" fill="#39ABD1">
            <g id="Group-17" transform="translate(885.762387, 18.777888)">
                <path d="M12.09943,7.65058 L0.68663,7.65058 C0.30723,7.65058 -7.00000001e-05,7.34328 -7.00000001e-05,6.96388 C-7.00000001e-05,6.58448 0.30723,6.27718 0.68663,6.27718 L12.09943,6.27718 C12.47883,6.27718 12.78543,6.58448 12.78543,6.96388 C12.78543,7.34328 12.47883,7.65058 12.09943,7.65058" id="Fill-1"></path>
                <path d="M6.96353,13.92734 C6.78783,13.92734 6.61213,13.86014 6.47843,13.72644 C6.21033,13.45764 6.21033,13.02364 6.47843,12.75484 L12.75463,6.47794 C13.02343,6.21054 13.45743,6.21054 13.72623,6.47794 C13.99433,6.74604 13.99433,7.18074 13.72623,7.44884 L7.44863,13.72644 C7.31493,13.86014 7.13923,13.92734 6.96353,13.92734" id="Fill-4"></path>
                <path d="M13.24029,7.65058 C13.06459,7.65058 12.88889,7.58268 12.75519,7.44898 L6.47829,1.17208 C6.21019,0.90398 6.21019,0.46928 6.47829,0.20118 C6.74639,-0.06692 7.18109,-0.06692 7.44919,0.20118 L13.72609,6.47808 C13.99419,6.74618 13.99419,7.18088 13.72609,7.44898 C13.59169,7.58268 13.41599,7.65058 13.24029,7.65058" id="Fill-7"></path>
            </g>
        </g>
    </g>
</svg>