<?xml version="1.0" encoding="UTF-8"?>
<svg width="14px" height="15px" viewBox="0 0 14 15" version="1.1" xmlns="http://www.w3.org/2000/svg" xmlns:xlink="http://www.w3.org/1999/xlink">
    <!-- Generator: Sketch 53.1 (72631) - https://sketchapp.com -->
    <title>Fill 9</title>
    <desc>Created with Sketch.</desc>
    <g id="Mar-2019" stroke="none" stroke-width="1" fill="none" fill-rule="evenodd">
        <g id="Home-Banner" transform="translate(-1383.000000, -18.000000)" fill="#FFFFFF">
            <g id="Group-22" transform="translate(1383.500000, 18.777888)">
                <path d="M7.78631747,6.70490336 L13.1848126,1.30613219 C13.4838906,1.00703889 13.4838906,0.522727273 13.1848126,0.224319971 C12.8864206,-0.0747733238 12.4021337,-0.0747733238 12.1030557,0.224319971 L6.70456056,5.62309115 L1.30606541,0.224319971 C1.00698741,-0.0747733238 0.522700547,-0.0747733238 0.224308502,0.224319971 C-0.0747695008,0.522727273 -0.0747695008,1.00703889 0.224308502,1.30613219 L5.62280365,6.70490336 L0.224308502,12.1036745 C-0.0747695008,12.4027678 -0.0747695008,12.8870795 0.224308502,13.1854868 C0.373161545,13.3350334 0.570031699,13.4104927 0.765529935,13.4104927 C0.961028171,13.4104927 1.15652641,13.3350334 1.30606541,13.1854868 L6.70456056,7.78671558 L12.1106013,13.1923467 C12.2601403,13.3418933 12.4556385,13.4166667 12.6511367,13.4166667 C12.846635,13.4166667 13.0421332,13.3418933 13.1923582,13.1923467 C13.4914362,12.8939394 13.4914362,12.4096278 13.1923582,12.1105345 L7.78631747,6.70490336 Z" id="Fill-9"></path>
            </g>
        </g>
    </g>
</svg>