<?xml version="1.0" encoding="UTF-8" standalone="no"?>
<svg width="18px" height="18px" viewBox="0 0 18 18" version="1.1" xmlns="http://www.w3.org/2000/svg" xmlns:xlink="http://www.w3.org/1999/xlink">
    <!-- Generator: Sketch 49.3 (51167) - http://www.bohemiancoding.com/sketch -->
    <title>Icons/Arrow</title>
    <desc>Created with Sketch.</desc>
    <defs>
        <polygon id="path-1" points="0 0.06417 16.43841 0.06417 16.43841 1.82997 0 1.82997"></polygon>
        <polygon id="path-3" points="0.870885 0.06444 10.7064 0.06444 10.7064 9.9 0.870885 9.9"></polygon>
    </defs>
    <g id="Desktop" stroke="none" stroke-width="1" fill="none" fill-rule="evenodd">
        <g id="Privacy-Policy" transform="translate(-154.000000, -165.000000)">
            <g id="Icons/Arrow" transform="translate(163.000000, 174.000000) rotate(-180.000000) translate(-163.000000, -174.000000) translate(154.000000, 165.000000)">
                <g id="Group-75">
                    <g id="Page-1">
                        <g id="Group-3" transform="translate(0.000000, 8.006490)">
                            <mask id="mask-2" fill="white">
                                <use xlink:href="#path-1"></use>
                            </mask>
                            <g id="Clip-2"></g>
                            <path
                                    d="M15.55641,1.82997 L0.88281,1.82997 C0.39501,1.82997 -9e-05,1.43487 -9e-05,0.94707 C-9e-05,0.45927 0.39501,0.06417 0.88281,0.06417 L15.55641,0.06417 C16.04421,0.06417 16.43841,0.45927 16.43841,0.94707 C16.43841,1.43487 16.04421,1.82997 15.55641,1.82997" id="Fill-1" fill="#FFF" mask="url(#mask-2)"></path>
                        </g>
                        <g id="Group-6" transform="translate(7.200000, 8.006490)">
                            <mask id="mask-4" fill="white">
                                <use xlink:href="#path-3"></use>
                            </mask>
                            <g id="Clip-5"></g>
                            <path
                                    d="M1.75311,9.90009 C1.52721,9.90009 1.30131,9.81369 1.12941,9.64179 C0.78471,9.29619 0.78471,8.73819 1.12941,8.39259 L9.19881,0.32229 C9.54441,-0.02151 10.10241,-0.02151 10.44801,0.32229 C10.79271,0.66699 10.79271,1.22589 10.44801,1.57059 L2.37681,9.64179 C2.20491,9.81369 1.97901,9.90009 1.75311,9.90009" id="Fill-4" fill="#FFF" mask="url(#mask-4)"></path>
                        </g>
                        <path
                                d="M17.02323,9.83646 C16.79733,9.83646 16.57143,9.74916 16.39953,9.57726 L8.32923,1.50696 C7.98453,1.16226 7.98453,0.60336 8.32923,0.25866 C8.67393,-0.08604 9.23283,-0.08604 9.57753,0.25866 L17.64783,8.32896 C17.99253,8.67366 17.99253,9.23256 17.64783,9.57726 C17.47503,9.74916 17.24913,9.83646 17.02323,9.83646" id="Fill-7" fill="#FFF"></path>
                    </g>
                </g>
            </g>
        </g>
    </g>
</svg>