<svg width="19" height="12" viewBox="0 0 19 12" fill="none" xmlns="http://www.w3.org/2000/svg">
<path d="M18.9468 6.00011C18.9468 5.85406 18.8583 5.66008 18.7686 5.5659L13.7165 0.196917C13.4808 -0.0466917 13.0985 -0.0748872 12.8233 0.172105C12.5774 0.393722 12.5712 0.825113 12.7985 1.06534L16.8541 5.36797H0.631579C0.282519 5.36797 0 5.65105 0 5.99955C0 6.34805 0.283083 6.63113 0.631579 6.63113H16.8547L12.7991 10.9338C12.5718 11.174 12.5876 11.5952 12.8239 11.827C13.0726 12.0717 13.4848 12.0497 13.7171 11.8022L18.7697 6.43376C18.918 6.28827 18.9451 6.14786 18.9479 5.99955L18.9468 6.00011Z" fill="black"/>
</svg>
