<svg id="Layer_1" data-name="Layer 1" xmlns="http://www.w3.org/2000/svg" viewBox="0 0 70 70"><defs><style>.cls-1{fill:#fff;}.cls-2{fill:#206ef3;}</style></defs><rect class="cls-1" x="13.43" y="12.86" width="46.67" height="46.67"/><path class="cls-2" d="M37.79,2a35,35,0,1,0,35,35A35,35,0,0,0,37.79,2ZM55.25,28.82,34.67,49.13a2.91,2.91,0,0,1-1.93.73h-.09A2.49,2.49,0,0,1,30.72,49L20.25,37.83a2.85,2.85,0,0,1,.18-3.95,2.76,2.76,0,0,1,3.86.18l8.54,9.09L51.3,24.87a2.85,2.85,0,0,1,4,.1A2.75,2.75,0,0,1,55.25,28.82Z" transform="translate(-2.79 -2)"/></svg>