<?xml version="1.0" encoding="UTF-8"?>
<svg width="23px" height="19px" viewBox="0 0 23 19" version="1.1" xmlns="http://www.w3.org/2000/svg" xmlns:xlink="http://www.w3.org/1999/xlink">
    <!-- Generator: Sketch 50 (54983) - http://www.bohemiancoding.com/sketch -->
    <title>noun_366814 copy 5</title>
    <desc>Created with Sketch.</desc>
    <defs></defs>
    <g id="Welcome" stroke="none" stroke-width="1" fill="none" fill-rule="evenodd">
        <g id="Resources" transform="translate(-389.000000, -794.000000)" fill="#39ABD1" fill-rule="nonzero">
            <g id="Group-15" transform="translate(160.000000, 537.000000)">
                <g id="Group-13">
                    <g id="noun_366814-copy-5" transform="translate(229.000000, 257.000000)">
                        <path d="M11.5000009,0 C11.253585,0 10.9772737,0.266879278 10.9772737,0.527777778 L10.9772737,13.5490451 L6.37074,9.12065972 C6.25860455,9.00869167 6.09433673,8.95235139 5.93785651,8.97222222 C5.7405032,8.99702778 5.56478164,9.15181181 5.50497302,9.34331597 C5.44516466,9.53482014 5.50445761,9.75295069 5.65199005,9.88758681 L11.140626,15.1653646 C11.2358217,15.2563535 11.3692752,15.3048431 11.5000009,15.3055556 C11.6327235,15.3055556 11.762726,15.2577257 11.8593759,15.1653646 L17.3480118,9.88758681 C17.546875,9.69761319 17.5606829,9.34616597 17.3725147,9.14539931 C17.1843465,8.94460625 16.8281251,8.93063333 16.6292619,9.12065972 L12.0227282,13.5490451 L12.0227282,0.527777778 C12.0227282,0.228312972 11.7464169,0 11.5000009,0 Z M0.52272911,17.9444444 C0.222231051,17.9444444 0.000789107494,18.2242194 1.88028521e-06,18.4722222 C-0.000790051468,18.7218083 0.248694352,19 0.52272911,19 L22.4772728,19 C22.7534638,19 23,18.7210167 23,18.4722222 C23,18.2234278 22.7534635,17.9444444 22.4772728,17.9444444 L0.52272911,17.9444444 Z" id="Shape"></path>
                    </g>
                </g>
            </g>
        </g>
    </g>
</svg>