<svg width="24" height="25" viewBox="0 0 24 25" fill="none" xmlns="http://www.w3.org/2000/svg">
<g id="icon_download-24" clip-path="url(#clip0_1736_7504)">
<path id="Vector" d="M12 24.5C18.6274 24.5 24 19.1274 24 12.5C24 5.87258 18.6274 0.5 12 0.5C5.37258 0.5 0 5.87258 0 12.5C0 19.1274 5.37258 24.5 12 24.5Z" fill="#206EF3"/>
<path id="Vector_2" fill-rule="evenodd" clip-rule="evenodd" d="M17.0019 17.6656C17.2048 17.6762 17.3959 17.7643 17.5358 17.9117C17.6757 18.059 17.7537 18.2545 17.7537 18.4576C17.7537 18.6608 17.6757 18.8563 17.5358 19.0037C17.3959 19.151 17.2048 19.2391 17.0019 19.2497H6.99882C6.79591 19.2391 6.60481 19.151 6.46493 19.0037C6.32505 18.8563 6.24707 18.6608 6.24707 18.4576C6.24707 18.2545 6.32505 18.059 6.46493 17.9117C6.60481 17.7643 6.79591 17.6762 6.99882 17.6656H17.0019ZM12.0008 5.10761C12.2198 5.09903 12.4332 5.17768 12.5943 5.32629C12.7554 5.47491 12.851 5.68136 12.8601 5.90036V13.1697L15.1745 11.0365C15.3416 10.8869 15.5579 10.8042 15.7822 10.8042C16.0064 10.8042 16.2228 10.8869 16.3899 11.0365C16.4691 11.1067 16.5325 11.193 16.576 11.2895C16.6194 11.3861 16.6419 11.4907 16.6419 11.5966C16.6419 11.7025 16.6194 11.8072 16.576 11.9037C16.5325 12.0003 16.4691 12.0865 16.3899 12.1567L12.6088 15.6417C12.5681 15.6789 12.524 15.7122 12.477 15.7411C12.457 15.7539 12.4354 15.7617 12.4154 15.7724C12.3871 15.7878 12.358 15.8018 12.3283 15.8143C12.3013 15.8243 12.2728 15.8307 12.2443 15.8385C12.2188 15.8456 12.195 15.8541 12.168 15.8591C12.1129 15.8696 12.0569 15.8748 12.0008 15.8747C11.9441 15.8748 11.8876 15.8696 11.832 15.8591C11.8065 15.8541 11.7819 15.8456 11.7564 15.8385C11.7279 15.8307 11.6994 15.8243 11.6717 15.8143C11.6425 15.8018 11.614 15.7878 11.5862 15.7724C11.5651 15.7631 11.5445 15.7527 11.5245 15.7411C11.4772 15.7124 11.4328 15.6791 11.392 15.6417L7.61088 12.1567C7.53165 12.0865 7.46823 12.0003 7.42479 11.9037C7.38135 11.8072 7.35889 11.7025 7.35889 11.5966C7.35889 11.4907 7.38135 11.3861 7.42479 11.2895C7.46823 11.193 7.53165 11.1067 7.61088 11.0365C7.77795 10.8869 7.99433 10.8042 8.21857 10.8042C8.44282 10.8042 8.65919 10.8869 8.82627 11.0365L11.1407 13.1697V5.90034C11.1498 5.68123 11.2455 5.47469 11.4067 5.32606C11.568 5.17743 11.7816 5.09886 12.0008 5.10759V5.10761Z" fill="white"/>
</g>
<defs>
<clipPath id="clip0_1736_7504">
<rect width="24" height="24" fill="white" transform="translate(0 0.5)"/>
</clipPath>
</defs>
</svg>
