<svg width="16" height="16" viewBox="0 0 16 16" fill="none" xmlns="http://www.w3.org/2000/svg">
<path d="M8 16C12.4183 16 16 12.4183 16 8C16 3.58172 12.4183 0 8 0C3.58172 0 0 3.58172 0 8C0 12.4183 3.58172 16 8 16Z" fill="#C4C4C5"/>
<path d="M10.4257 10.8037C10.3236 10.8025 10.2259 10.762 10.153 10.6905L5.30668 5.84421C5.23853 5.77106 5.20142 5.67432 5.20319 5.57436C5.20495 5.4744 5.24544 5.37902 5.31614 5.30833C5.38683 5.23763 5.48221 5.19714 5.58217 5.19537C5.68213 5.19361 5.77888 5.23071 5.85202 5.29887L10.6983 10.1452C10.7706 10.2175 10.8112 10.3156 10.8112 10.4178C10.8112 10.5201 10.7706 10.6182 10.6983 10.6905C10.6248 10.7611 10.5275 10.8015 10.4257 10.8037V10.8037Z" fill="white" stroke="white" stroke-width="0.5"/>
<path d="M5.57301 10.8037C5.47115 10.8015 5.37383 10.7611 5.30034 10.6905C5.22809 10.6182 5.1875 10.5201 5.1875 10.4178C5.1875 10.3156 5.22809 10.2175 5.30034 10.1452L10.1466 5.29887C10.2198 5.23071 10.3165 5.19361 10.4165 5.19537C10.5165 5.19714 10.6118 5.23763 10.6825 5.30833C10.7532 5.37902 10.7937 5.4744 10.7955 5.57436C10.7972 5.67432 10.7601 5.77106 10.692 5.84421L5.84568 10.6905C5.77277 10.762 5.67509 10.8025 5.57301 10.8037V10.8037Z" fill="white" stroke="white" stroke-width="0.5"/>
</svg>
