<svg width="24" height="25" viewBox="0 0 24 25" fill="none" xmlns="http://www.w3.org/2000/svg">
<g id="Icon_arrow" clip-path="url(#clip0_1736_7536)">
<path id="Vector" fill-rule="evenodd" clip-rule="evenodd" d="M24 12.4652C23.9931 10.0918 23.2825 7.77379 21.9583 5.80424C20.634 3.83468 18.7554 2.30206 16.56 1.40018C14.3647 0.498291 11.9512 0.26765 9.6248 0.73742C7.29839 1.20719 5.16352 2.35627 3.49016 4.03936C1.81681 5.72244 0.680123 7.86394 0.223848 10.193C-0.232427 12.5221 0.0122021 14.9342 0.9268 17.1243C1.8414 19.3144 3.38489 21.184 5.36208 22.4969C7.33928 23.8098 9.66138 24.5068 12.0347 24.5C13.6119 24.5001 15.1736 24.1883 16.6299 23.5827C18.0861 22.9771 19.4083 22.0895 20.5203 20.971C21.6323 19.8526 22.5122 18.5253 23.1094 17.0655C23.7065 15.6058 24.0092 14.0423 24 12.4652Z" fill="#206EF3"/>
<path id="Vector_2" fill-rule="evenodd" clip-rule="evenodd" d="M6.28777 12.2964C6.27919 12.0774 6.35784 11.8639 6.50645 11.7028C6.65507 11.5417 6.86152 11.4461 7.08052 11.437H14.3499L12.2167 9.12264C12.0671 8.95557 11.9844 8.7392 11.9844 8.51495C11.9844 8.2907 12.0671 8.07433 12.2167 7.90725C12.2869 7.82803 12.3731 7.76461 12.4697 7.72117C12.5662 7.67773 12.6709 7.65527 12.7768 7.65527C12.8827 7.65527 12.9873 7.67773 13.0839 7.72117C13.1804 7.76461 13.2667 7.82803 13.3369 7.90725L16.8219 11.6883C16.8591 11.729 16.8924 11.7731 16.9213 11.8201C16.9341 11.8401 16.9419 11.8617 16.9526 11.8817C16.968 11.91 16.982 11.9391 16.9945 11.9688C17.0044 11.9958 17.0108 12.0243 17.0186 12.0528C17.0257 12.0783 17.0343 12.1022 17.0392 12.1291C17.0498 12.1843 17.055 12.2403 17.0549 12.2964C17.055 12.353 17.0498 12.4095 17.0392 12.4652C17.0343 12.4907 17.0257 12.5153 17.0186 12.5407C17.0108 12.5692 17.0044 12.5977 16.9945 12.6255C16.982 12.6547 16.968 12.6832 16.9526 12.711C16.9433 12.7321 16.9329 12.7527 16.9213 12.7726C16.8926 12.82 16.8593 12.8644 16.8219 12.9052L13.3369 16.6863C13.2667 16.7655 13.1804 16.8289 13.0839 16.8723C12.9873 16.9158 12.8827 16.9382 12.7768 16.9382C12.6709 16.9382 12.5662 16.9158 12.4697 16.8723C12.3731 16.8289 12.2869 16.7655 12.2167 16.6863C12.0671 16.5192 11.9844 16.3028 11.9844 16.0786C11.9844 15.8543 12.0671 15.6379 12.2167 15.4709L14.3499 13.1565H7.08052C6.8614 13.1473 6.65487 13.0516 6.50624 12.8904C6.35762 12.7291 6.27904 12.5155 6.28777 12.2964Z" fill="white"/>
</g>
<defs>
<clipPath id="clip0_1736_7536">
<rect width="24" height="24" fill="white" transform="translate(0 0.5)"/>
</clipPath>
</defs>
</svg>
