<svg xmlns="http://www.w3.org/2000/svg" xmlns:xlink="http://www.w3.org/1999/xlink" width="14" height="14" viewBox="0 0 14 14"><defs><path id="wrdxa" d="M1291.33 45.24h2.55v-9h-2.55zm1.2-10.12a1.5 1.5 0 0 0 1.56-1.56c-.01-.89-.6-1.56-1.53-1.56a1.5 1.5 0 0 0-1.56 1.56c0 .87.6 1.56 1.52 1.56zm11.55 10.12v-5c0-2.79-1.43-4.08-3.24-4.08-1.46 0-2.37.88-2.54 1.5v-1.41h-2.86c.03.75 0 9 0 9h2.86v-4.88c0-.27-.01-.54.06-.73.2-.54.62-1.1 1.38-1.1 1 0 1.45.83 1.45 2.05v4.65z"/></defs><g><g transform="translate(-1291 -32)"><use fill="#000" xlink:href="#wrdxa"/></g></g></svg>