<svg width="93" height="80" viewBox="0 0 93 80" fill="none" xmlns="http://www.w3.org/2000/svg">
<path d="M0 0H42.6502V32.8433C42.6502 44.9392 40.1466 54.4993 35.1395 61.5236C30.1323 68.5479 21.5486 74.7067 9.38842 80L0.075107 62.5537C7.65737 59.0272 12.872 55.5115 15.7189 52.0064C18.5673 48.4783 20.2306 44.1418 20.4721 39.6137H0.0858389L0 0ZM49.7103 0H92.3498V32.8433C92.3498 44.9392 89.8462 54.4993 84.8391 61.5236C79.8319 68.5479 71.2482 74.7067 59.088 80L49.7747 62.5537C57.3498 59.0272 62.5608 55.5115 65.4077 52.0064C68.2619 48.4816 69.926 44.1431 70.1609 39.6137H49.7747L49.7103 0Z" fill="#206EF3"/>
</svg>
