<svg id="Layer_1" data-name="Layer 1" xmlns="http://www.w3.org/2000/svg" viewBox="0 0 606.31 549.39"><defs><style>.cls-1{fill:#f3f3f3;}</style></defs><title>quoteicon</title><path class="cls-1" d="M561.57,12.3V133.45c-33.3,1.3-60.15,14.74-79.94,41.6-18.19,24.66-19.88,52.92-17.9,82.78h127v277.1c-1.55.08-3.29.24-5,.24q-119.22,0-238.46.1c-4.5,0-5.89-1.07-5.88-5.76.14-98.48-.08-197,.16-295.45.22-94,55.37-174,143-208,24-9.31,49-13.69,74.7-14.06A17.93,17.93,0,0,1,561.57,12.3Z"/><path class="cls-1" d="M21.16,534.94v-5.66q0-147.49,0-295c0-102,65.7-188,164.13-215A206.74,206.74,0,0,1,240.91,12V133.44c-33,1.31-59.83,14.72-79.64,41.53-18.24,24.68-19.88,53-17.73,82.86h5.52c38.67,0,77.33.08,116-.09,4.52,0,5.87,1.11,5.86,5.78q-.21,133,0,266c0,4.7-1.39,5.77-5.88,5.76q-119.25-.19-238.49-.1C24.92,535.17,23.29,535,21.16,534.94Z"/></svg>