<?xml version="1.0" encoding="UTF-8" standalone="no"?>
<svg width="15px" height="13px" viewBox="0 0 15 13" version="1.1" xmlns="http://www.w3.org/2000/svg" xmlns:xlink="http://www.w3.org/1999/xlink">
    <!-- Generator: Sketch 49.3 (51167) - http://www.bohemiancoding.com/sketch -->
    <title>Page 1</title>
    <desc>Created with Sketch.</desc>
    <defs>
        <polygon id="path-1" points="0.000155172414 0.0002 14.6326862 0.0002 14.6326862 12.65245 0.000155172414 12.65245"></polygon>
    </defs>
    <g id="Symbols" stroke="none" stroke-width="1" fill="none" fill-rule="evenodd">
        <g id="Icons/Search">
            <g id="Page-1">
                <mask id="mask-2" fill="white">
                    <use xlink:href="#path-1"></use>
                </mask>
                <g id="Clip-2"></g>
                <path d="M5.53774138,9.59095 C3.12015517,9.59095 1.15360345,7.68995 1.15360345,5.35295 C1.15360345,3.01645 3.12015517,1.11545 5.53774138,1.11545 C7.95532759,1.11545 9.92239655,3.01645 9.92239655,5.35295 C9.92239655,7.68995 7.95532759,9.59095 5.53774138,9.59095 M14.4203276,11.66295 L10.1556724,8.30395 C10.7365345,7.45695 11.0758448,6.44295 11.0758448,5.35295 C11.0758448,2.40145 8.59101724,-5e-05 5.53774138,-5e-05 C2.48446552,-5e-05 0.000155172414,2.40145 0.000155172414,5.35295 C0.000155172414,8.30495 2.48446552,10.70595 5.53774138,10.70595 C7.04963793,10.70595 8.42136207,10.11745 9.4217069,9.16445 L13.6915345,12.52745 C13.7986034,12.61195 13.9273966,12.65245 14.0551552,12.65245 C14.2227414,12.65245 14.3887759,12.58245 14.5030862,12.44745 C14.7042931,12.20845 14.6670517,11.85695 14.4203276,11.66295" id="Fill-1" fill="#231F20" mask="url(#mask-2)"></path>
            </g>
        </g>
    </g>
</svg>