<?xml version="1.0" encoding="UTF-8"?>
<svg id="Layer_1" xmlns="http://www.w3.org/2000/svg" version="1.1" viewBox="0 0 288 85.3">
  <!-- Generator: Adobe Illustrator 29.1.0, SVG Export Plug-In . SVG Version: 2.1.0 Build 142)  -->
  <defs>
    <style>
      .st0 {
        fill: #fff;
      }
    </style>
  </defs>
  <path class="st0" d="M193.9,85.3H.3V0h288v85.3h-94.4M43.7,35.2s0,0,.1,0c0,0,0-.2.2-.4.4-1.1.9-2.2,1.5-3.2,0,.4.2.8.2,1.5,0,.5,0,1.1,0,1.8,0,.2,0,.5,0,1,0,3,0,5.9,0,9.2,0,.9,0,1.9,0,3.1,0,3,0,5.9,0,9.1v5.2h6.4c0-3,0-5.8,0-9,0-5.6,0-11.1,0-16.9,0-.2,0-.5,0-1,0-2.9,0-5.9,0-9.1,0-1.8,0-3.6,0-5.7,0-.9,0-1.9,0-2.8,0-.8-.3-1.1-1.1-.7-1.3,0-2.6-.1-3.8-.1-.9,0-1.8.2-2.8.4-.1.2-.3.3-.4.5-4.5,10.6-9.1,21.3-13.6,31.9-.2.5-.4,1.2-1.2.4-.3-.7-.6-1.4-.9-2.3,0-.2,0-.4-.2-.9-.8-1.6-1.6-3.2-2.4-5.1-.1-.2-.2-.5-.3-.9-1-2.6-2-5.1-3.1-7.7-2.3-5.3-4.6-10.5-6.9-15.8,0,0,0,0,0-.3-.1-.1-.3-.4-.4-.4-2.3,0-4.7,0-7,0-.2,0-.3.5-.5,1,0,8.6,0,17.2,0,26.1,0,5.6,0,11.3,0,16.9,0,.4.2.8.6,1.4,1.5,0,3,0,4.6,0,.4,0,.8-.3,1.4-.7,0-.6,0-1.1,0-2,0-2.7,0-5.5,0-8.5,0-2.7,0-5.5,0-8.5,0-3.6,0-7.2.1-11,.1,0,.3-.1.4,0,.7,1.4,1.3,2.7,1.9,4.1,0,.1.1.2.2.3,0,0,0,0,0,.2,0,0,.1,0,.2.4,2.2,5.3,4.5,10.6,6.7,16,.2.2.4.5.6,1,.7,1.8,1.4,3.6,2.1,5.6,1.3,3.4,1.5,3.6,4.8,3.2.5,0,1.2-.6,1.5-1,1.6-3.5,3.1-7.1,4.7-10.6.1-.3,0-.8.1-1.4.2-.2.4-.3.5-.5,1.5-3.4,3.1-6.8,4.6-10.3.4-.9.6-2,1.1-3,0,0,0-.1,0-.3,0,0,0-.2.2-.2M224.4,38.9c.1.1.2.3.4.6,0,0,0,0,0,.3,0,.1,0,.2.2.4,0,.1.1.3.1.5,0,.1.1.3.3.6,0,.3.1.6.2,1.1,0,.2,0,.5,0,1,0,1.4,0,2.7,0,4.4,0,4.3,0,8.6,0,13.2.1.6-.5,1.6,1.1,1.6,1.2,0,2.3,0,3.7,0,.1,0,.3,0,.6,0,.2,0,.3-.1.5-.2,0,0,0,0,.2,0,0-.3.2-.5.2-.8,0-6.1,0-12.3,0-18.4,0-.4-.1-.8-.2-1.4,0,0,0-.1,0-.4,0-.3-.2-.5-.3-1-.8-2-1.3-4.3-2.5-6-4.7-6.3-13.6-7.1-19.5-2-.2.2-.4.3-.7.5,0-1.1-.2-2-.4-3.1-1.5,0-3,0-4.6,0-1,0-1.2.4-1.2,1.3,0,3.4,0,6.7,0,10.1,0,6.5,0,13,0,19.8v1.8c1.7,0,3.2,0,4.7,0,1.1,0,1.6-.3,1.6-1.5,0-6.2,0-12.4.1-18.8.5-2.3,1.5-4.3,3.6-5.7,3.8-2.5,7.9-1.8,11.7,1.8,0,0,0,0,0,.2,0,0,0,.1,0,.3M266.6,54.9c0-.2-.2-.3-.3-.7,0-.2-.2-.5-.3-.9-.2-.6-.4-1.2-.6-1.8-.7-1.6-1.3-3.2-1.9-5-.2-.6-.3-1.3-.5-1.9-.2.2-.5.3-.8.4,0,0,0-.1,0-.3-.1,0-.2-.1-.5-.3-.3-.5-.5-1-.6-1.6.4-1-.3-.8-1-.9-.2-.3-.3-.5-.3-.9,1.1-.9,2.3-1.8,2-3.3-1.1.7-2.1,1.4-3.3,2.1-.1-.2-.3-.4-.4-.7,0,0-.1-.1-.3-.3,0-.2-.2-.3-.3-.7.3-2.6,2.1-1.8,3.8-1.3-.2-.7-.2-1.1-.3-1.5-.4-.7-.8-1.3-1.3-1.9-.6.5-1.1,1-1.7,1.5-.6.5-1.3,1-2,1.5,0,0,0-.1,0-.3-.1,0-.2-.2-.4-.3,0,0,0-.1.2-.2,0-.4,0-.8,0-1.1-.3-.5-.8-1-1.1-1.6.2-.2.3-.3.8-.5.8,0,1.8.2,2.2-.3.5-.5.5-1.6.7-2.4.5.1,1,.2,1.4.3-.4-.9-.7-1.7-.9-2.5.2-.2.3-.3.7-.4.5.5,1,.9,1.7,1.5.1-.2.5-.7.4-.8-1-1-.4-2.2-.4-3.5.4-.5.8-1.1,1.3-1.5.6.3.3,2,2,1.2-.6-.8-1.1-1.5-1.6-2.4,0-.2.1-.4.3-.6.1-.1.2-.2.6-.3.5.6,1,1.1,1.5,1.7,1.3-1.5,1-2.1-1-3.2,0-.3.2-.5.4-.9.2-.6.5-1.1.9-1.9.2-.6.4-1.1.8-1.8,0,0,0-.2.2-.5.3-.9.6-1.7,1-2.8.1-.6.2-1.2.5-1.9,0-.1,0-.3.2-.6,0-.5.2-1,.2-1.6-.9,0-1.8-.5-1.9,1.1-.3,1.3-.7,2.5-1.1,3.9,0,.1,0,.2-.2.5,0,.2-.1.5-.3.8-.1.3-.2.6-.5,1.1,0,.3-.1.6-.4,1-.1.3-.3.7-.6,1.2-.2.4-.3.8-.7,1.3,0,.1-.1.2-.3.5-.9,1.5-1.8,3.1-2.9,4.7,0,.1,0,.2-.3.4,0,.1-.1.2-.3.4,0,.1-.1.3-.3.5,0,.1-.1.2-.3.4,0,0-.1.2-.3.3,0,0-.1.2-.2.3,0,0,0,0-.2.2,0,.1-.2.2-.4.4-.8,1-1.7,2.1-2.8,3-1.4-.5-2.7-.4-4.1.3-.3-.4-.6-.7-.9-1,0,0,0,0,0-.2-.7-.9-1.4-1.8-2.1-2.6,0,0,0,0,0-.2-3.6-5.4-6.8-11-8.1-17.5-.3-1.3-1.1-1-2-.6,1,6,3.4,11.3,6.6,16.5.1.1.3.3.5.6.7.9,1.3,1.8,2,2.6,0,0,0,0,0,.2,0,0,.1.2.3.4,1.2,1.6,2.4,3.2,3.7,4.7.9,1,1,1.6,0,2.7-2.3,2.9-4.4,6-6.7,9.1-3.5,5.6-5.9,11.7-6.7,18.4,1,.1,1.7.4,2-.8,1.1-3.8,2.2-7.5,3.5-11.4.1-.3.3-.7.5-1.1,0,0,0,0,.2-.2.2-.5.4-1.1.7-1.7,0,0,0-.1.1-.4.9-1.3,1.7-2.6,2.8-4,2-2.5,4-5.1,6-7.4.6.9,1.2,1.8,1.5,2.8-1,.1-2.2-.5-3.4.9,1.2,0,2.1,0,2.9,0,.3,0,.5-.6.9-.9.6.7,1.2,1.4,1.8,2.1,3.6,4.6,6.4,9.5,8.5,15.1,0,.1.2.3.3.6,0,.2.1.5.2.8,0,0,0,.1,0,.4,0,.2.2.5.3.9,0,0,.2.2.2.5,0,.2,0,.4,0,.8,0,.1,0,.3,0,.6.2.7.3,1.4.5,2.2.1,0,.2,0,.5.2,0,0,.2,0,.3,0,.3-.2.9-.5.9-.6-.5-2-1-4.1-1.5-6.3,0-.2,0-.3-.1-.6M131.6,53.2s0,0,0,.2c.2.3.4.6.6,1,0,0,.1,0,.1.3,1.5,1.5,3.1,3,4.8,4.6,6.4,3.7,12.4,3.1,18.1-1.7.5,4.5-.2,8.5-4.3,11.3-1.2.5-2.4.9-3.7,1.3-.2,0-.3.1-.7,0-4.4,0-8.1-1.2-9.6-5.9,0-.3-.5-.6-.8-.6-2,0-4,0-6.2,0,.9,5.1,3.6,8.6,8.1,10.9,0,0,0,0,.2.2,1.4.4,2.8.8,4.4,1.3,4.7.7,9.1,0,13.1-3,0-.2.1-.3.2-.5,0,0,0,0,.2,0,1.8-1.1,2.9-2.7,3.6-4.7,0,0,0,0,.2,0,.4-1.5.9-2.9,1.4-4.6,0-.1,0-.3.1-.6.1-2.1.2-4.3.4-6.7,0-.5,0-.9,0-1.6,0-.2,0-.5,0-.9,0-.1,0-.3,0-.7,0-5.7,0-11.4,0-17.3,0-1.6,0-3.2,0-4.8,0-.4-.4-.8-.9-1.2-1.1,0-2.1,0-3.4,0h-2.1c0,.9,0,1.6,0,2.3,0,1-.5.8-1.2.3,0,0-.1,0-.2-.2-.3-.2-.6-.4-1-.5,0,0,0,0,0-.2-.9-.5-1.9-.9-2.8-1.4,0,0,0,0-.2-.1-.8-.2-1.5-.3-2.5-.6-.5,0-1.1,0-1.8-.1-.8,0-1.5,0-2.5.1-.4,0-.7.2-1.3.3-.5.1-1,.2-1.5.3-8.7,2.4-13.6,15-9.1,23,0,0,.1.2.2.4,0,.1,0,.2.2.2M93.5,39.7s0,0-.2.3c-.1.5-.2,1-.4,1.6,0,0,0,0-.1.3,0,2.6-.5,5.3-.1,7.9.8,5.2,3.6,9.2,8.5,11.8,4.1,1.9,8.3,2.4,12.6.4,0,0,0,0,.2,0,1.6-1.2,3.1-2.3,4.9-3.4,0,1.2.2,2.5.3,4,2.1-.2,4-.3,6-.7,0-.9,0-1.8,0-2.9,0-.4,0-.9,0-1.6,0-12.8,0-25.5,0-38.3,0-.4,0-.7,0-1.3,0-.1,0-.3-.1-.7-.5,0-1,0-1.8-.1-.7,0-1.5,0-2.5,0-.1,0-.3,0-.7,0-.7,0-1.4-.2-1.4.9,0,1.9,0,3.9,0,6v9.3c-1.8-1.1-3.3-2-4.9-3.1-.2,0-.5-.1-.8-.3,0,0-.1,0-.3-.1-1-.2-2-.4-3.3-.6-1,0-1.9,0-3.1,0-1,.2-2,.5-3.1.7,0,0,0,0-.4.1-4.1,1.6-7.2,4.3-9.1,8.6,0,.2,0,.4-.2.7,0,.2,0,.3-.2.6M197.4,41.3c-.2-.6-.4-1.1-.6-1.9-2.2-5-5.6-8.5-11.2-9.8,0,0,0,0,0,0,0,0,0,0-.3,0-.6,0-1.2-.1-2-.3-1.1,0-2.2,0-3.5,0-.2,0-.5,0-.9,0-.1,0-.2.1-.6.1-1.4.5-2.9,1.1-4.5,1.7-1.4,1.2-3,2.2-4.1,3.6-3.4,4-4.4,8.7-3.9,13.8.4,4.1,2.1,7.6,5.3,10.5,5.2,4.5,11.1,5.3,17.3,2.9,4.3-1.6,7.2-4.9,8.9-9.5-1.9,0-3.5,0-5.2,0-.9,0-1.4.4-2.1,1-1.2,1.2-2.5,2.4-4,3.2-2.3,1.2-4.8.9-7.4.3-.1,0-.3,0-.5-.2-.3-.1-.6-.3-1-.5,0,0-.1,0-.3-.2-3-1.9-4.6-4.5-5.1-8.2h26.4c0-1.4-.2-2.6-.2-4.1-.1-.5-.2-.9-.3-1.6,0-.2-.2-.5-.2-1M246.9,14.1c0,.2.1.4.4.8.9,0,1.8,0,3,0,.8,0,1.7,0,2.7,0,1.4,0,2.7,0,4.1,0,.3,0,.5-.4.7-.6-.2-.2-.5-.5-.7-.5-1.3,0-2.7.1-4.3.2-.9,0-1.9,0-3.1-.2-.9,0-1.8.1-2.8.3M84.6,34.1c-1.9-2.1-4.1-3.6-7-4.3,0,0-.2,0-.3-.1-10.1-2.7-19.4,3.8-20.6,14.4-.5,4.6.2,9,3.3,12.9.2.2.4.5.7.9,5.1,5.3,11.2,6.5,18,4.4,4.7-1.5,7.7-4.9,9.6-9.6-1.4,0-2.6,0-3.7,0-1.9-.1-3.6-.2-4.1,2.2,0,.2-.4.3-.7.5-.1.1-.3.3-.5.5,0,0-.2.2-.5.2-.1,0-.3,0-.4.2-5.4,2.6-10.6,1.3-14-3.6-.9-1.2-1.2-2.8-1.9-4.5.9,0,1.3,0,1.7,0,7.8,0,15.6,0,23.4,0,.5,0,1-.3,1.5-.6,0,0,0-.1,0-.4,0-.2,0-.5,0-.9,0-.2,0-.5,0-.9,0-.4-.1-.7-.1-1.3-.5-3.6-1.7-6.9-4.4-9.5,0,0,0,0,0-.2M275.5,15.2c-.3,0-.6,0-1,0-.6.1-1.3.1-1.8.5-.7.5-1.3,1.3-.5,2.3,0,0,0,0-.3,0-.3.2-.5.4-.8.6.3.2.6.4.9.9,0,.6,0,1.2,0,2,.4,2.2.6,2.5,2.9,2.4,2.9.2,4.7-.6,5.5-2.6.8-1.9.2-3.8-1.8-5.8.1-.8.2-1.5.3-2.3-1.2-.4-2.9.5-3.4,2M275.4,62.5c1.3,0,2.6,0,4.1-.3,0-4,0-7.9.1-12.1,0-5.4,0-10.8,0-16.3,0-4.9,0-4.9-4.9-4.6-.4,0-.8.5-1.5.7-1.1,0-1,.9-1,1.6,0,3.8,0,7.7,0,11.5,0,.9.2,1.8.2,2.6,0,5.2,0,10.4.1,15.7,0,.2.5.5,1,.9.4,0,.8.1,1.4.3,0,0,.1,0,.4,0M252.3,46.6c1.8-.2,3.7.4,5.8-.6-.5-.3-.8-.5-1-.5-3.1,0-6.3,0-9.4,0-.3,0-.6.4-.9.6,0,.2.1.3.2.5,1.7,0,3.4,0,5.4,0M254.2,53.8c1.2,0,2.4-.1,3.6-.2-1.6-1.2-10.5-1-11.6,0,2.7.4,5.2,0,7.9.1M251.6,49.1c-1.2,0-2.4,0-3.6,0-.4,0-.8.4-1.2.5.4.2.8.5,1.2.5,3,0,6,0,9,0,.3,0,.6-.2.9-.3,0-.2,0-.4,0-.6-1.9,0-3.9,0-6.1,0M251,18.6c2.3,0,4.5,0,6.8-.1-1.4-1.2-10.3-1.1-11.3.1,1.6,0,2.9,0,4.5,0M252.9,22.3q3.9,0,4.6-.8h-10.2c0,.2,0,.4,0,.6,1.7.5,3.5,0,5.5.2M253.2,41.9c-1.3,0-2.6,0-3.9,0-.4,0-.7.4-1.1.6.4.2.7.6,1.1.6,2.2,0,4.4,0,6.6-.2.2,0,.5-.3.7-.4,0-.2,0-.4,0-.5-1,0-2,0-3.3,0M256.2,25.3c-2.3-.7-4.6-.3-6.9-.3,0,.3,0,.5,0,.8,2.3.1,4.5.5,6.9-.5M270.4,15.4c.4-.4,1-.6,1.3-1.1.2-.4,0-.9,0-1.4-.6,0-1.3,0-1.8.2-.4.2-.8.8-.7,1.2,0,.4.6.7,1.2,1.1M276.3,25.2c-.9-.3-1.8-.4-2.6.8h5.6c0-.1,0-.3,0-.4-.9-.1-1.8-.2-3-.4M268.1,17.9c.2,0,.4,0,.6,0,.4-.2.8-.4,1.2-.7-.5-.1-.9-.4-1.4-.4-.3,0-.7.2-1,.4.1.2.2.5.6.7M268.7,21c-.2-.1-.4-.3-.6-.4,0,.1,0,.2-.1.4.2,0,.5.1.7,0M261.5,41c0,.1,0,.2,0,.4,0,0,.1,0,.1,0,0-.1,0-.2-.1-.4Z"/>
  <path class="st0" d="M208.6,29.9c0,.9.1,1.8.2,2.9.3-.2.5-.3.7-.5,6-5.1,14.9-4.3,19.5,2,1.3,1.7,1.7,4,2.5,6.2,0,.5.2.8.2,1,0,0,0,.1,0,.4,0,.9,0,1.7,0,2.5,0,3.1,0,6.1,0,9.2,0,1.8,0,3.5,0,5.2,0,.1-.1.2-.1.4,0,1.1,0,2.1,0,3.1,0,0,0,0-.1,0-.3,0-.4,0-.6.1-.1,0-.3,0-.6,0-1.4,0-2.6,0-3.8,0-1.4.2-.7-.9-.7-1.6.5.9,1.2,1,2.2.8.8-.2,1.7,0,2.6,0,.1,0,.3-.3.3-.5.1-1.1.4-2.2.4-3.3,0-5.7-.2-11.4-.3-17.1,0-.7-.2-1.4-.4-2-.3-.6-.3-1.5-1.5-1.3-.8.2-1.4-1.3-.8-1.9,1.1-1.2,0-1.4-.9-1.8,0,1.5-.2,2.8-.2,4.1-.2,0-.5,0-.7,0-.1-.8-.3-1.5-.4-2.4-.9,2.2-2-.4-2.9,0,.5,1,.8,1.9,1.2,2.8-3.8-3.7-7.9-4.3-11.6-1.8-2.1,1.3-3.1,3.3-3.7,5.9-.1,4.4-.1,8.5-.1,12.7-.2,0-.5,0-.7,0v-6.6c-1.8-.6-3.3-1.2-4.8-1.8,0-5.1,0-10,0-14.9,0-1.3.3-1.8,1.6-1.7,1.2,0,2.5-.2,3.7-.3Z"/>
  <path class="st0" d="M197.6,42.5c.1.5.2.9.2,1.6-.1.5-.2.8-.2,1.1q0,2-2.1,2c-5.2,0-10.3,0-15.5,0-2.5,0-5,0-7.5,0-1.2,0-1.7.3-1.5,1.8.4,2.3,1.7,4,2.9,5.8,0,.2,0,.3,0,.4.2,0,.3-.1.6-.1.9.4,1.7.8,2.5,1.2,0,0,.1,0,.2.2.4.3.8.4,1.1.5.1,0,.3,0,.4.2-.3.5-.6.9-.9,1.4,1.9,1.5,4-1.3,5.8.7-.8.4-1.4,1-2,.9-2.3-.1-4.6.9-6.9,0-1.3-.5-2.1-1.1-2-2.2.7.2,1.3.4,2,.7.4.2.9.4,1.3.5,0-.2,0-.4,0-.5-.5,0-.9,0-1.4-.2-.2-1.1-.4-2.1-1.7-2.1-.2,0-.4-.3-.4-.5-.1-1.2-.6-1.2-1.4-.6-.2.1-.6-.1-1,0-.4,0-.7.2-1.2.2-.7-1.3-1.7-2.6-2-3.9-.4-2.4-.4-5-.4-7.5,0-.5.4-1,.8-1.6,2.7,4.5,3.7,5.1,5,3.4-.1,0-.3,0-.4-.1,0-.6.2-1.2.4-1.9.7-.1,1.4-.3,2-.3,5.3,0,10.6,0,15.9,0,.5,0,1-.4,1.5-.7-.7-3.1-2.6-5.1-5-6.9-.1-.3-.2-.6-.2-.8.7,0,1.4-.1,2.3-.2-1.6-1.1-2-1-2.5.2-1.1-.3-2-.5-3.1-.8.6-.4.9-.7,1.3-1-.3-.3-.5-.6-.9-.9,1.3-.3,2.8.3,3.5-1.2,0-.1,1,.2,1.5.3,0,.1,0,.3,0,.4-.4.2-.8.5-1.4.8,1.4.5,2.5,1,3.6,1.4.1-.2.2-.4.4-.6-.6-.2-1.1-.4-1.7-.6.2-.2.5-.5.7-.7,1.5,1.8,4,2.8,4.7,5.4.2.8,1,1.4,1.5,2.3.1.7.2,1.2.3,1.9.3.4.6.6.9.8M185.6,33.8c.1-.2.2-.3.3-.5,0,0-.2,0-.3-.1,0,.2-.1.3,0,.6M177.3,58s0,0-.1.1c0,0,.1,0,.1-.1Z"/>
  <path class="st0" d="M151.1,68.9c3.8-2.8,4.6-6.7,4-11.3-5.7,4.8-11.7,5.4-18.1,1.5-.5-.7-.9-1.1-1.2-1.6-.8-.9-1.5-1.8-2.2-2.8.7-.7,1.2-.5,1.7.2.4.6,1,1.1,1.6,1.7.9-2.1-.8-2.7-1.5-4.1.8,0,1.4,0,2,.2.7.2,1.4.5,2.2.8.2,0,.2.1.2.3.1.1.2.2.3.3,0,0,0,0,0,0,.3.3.7.4,1.1.5,0,0,.1,0,.1.2.7.4,1.5.6,2.3.9,2.1,0,4.3.3,6.1-.4,2.7-1,4.6-3.3,5.7-6.1.3-.9.6-1.8.9-2.4,1.6,1.2,3.1,2.4,4.7,3.6,0,.4-.2,1,0,1.5,0,.4.5.8.7,1.2,0,.1,0,.3,0,.5-.3.3-.5.5-.6.7.2.1.5.3.7.4,0,.5,0,.9,0,1.6-.2,2.4-.3,4.5-.4,6.6,0,.1,0,.3-.1.5-.4.6-.6,1.1-1,1.7-.4.2-.7.5-1,.7-.4.3-.8.7-1.3.7-.4,0-.8-.4-1.3-.6.3-.3.6-.6,1-.8.4-.3.9-.6,1.2-1,.5-.7.8-1.5,1.1-2.2-1.3-1.1-2.5-2.2-4.1-3.5.4,3.3-.3,6-1.4,8.8-.8,2.1-.7,2.3-3,1.9-.2-.1-.2-.2-.2-.3Z"/>
  <path class="st0" d="M14,32c0,3.6,0,7.2-.1,11-.3-.3-.6-.6-.6-1,0-.9,0-1.9,0-2.8,0-.5-.5-.9-.8-1.3-1.5,1.2-2.8,0-4.2-.5,0-6.6,0-13,0-19.5,2.5,0,4.8,0,7.2,0,0,0,0,0,0,.1.2,1,.3,2,.7,2.8,1.3,3.2,2.7,6.3,4.1,9.5.9,2.1,1.7,4.3,2.4,6.5-.5-.2-.9-.4-1.4-.6-.1.4-.2.7-.4.9-.2.5-.5,1-.7,1.5-.4-.4-.9-.8-1.1-1.3-.6-1.9-.6-2-2.3-1.1,0,0,0,0,0,0,0-.1,0-.2-.1-.2-.7-1.4-1.3-2.7-2-4.3-.2-.3-.3-.5-.5-.6,0,.3,0,.6,0,.9Z"/>
  <path class="st0" d="M45.8,34.6c0-.5,0-1.1,0-1.8,0-.8-.1-1.4-.3-2.2-.3-.2-.5-.3-.8-.4-.4,1.6-.8,3.1-1.2,4.7,0,0,0,.2,0,.2,0,0,0,0-.1,0-.2.1-.2.2-.2.3,0,0,0,.1-.1.2-.6.7-1,1.3-1.5,1.9-1-1.7-2.2-.2-2.8-.4-.4-.7-.8-1.4-1.2-2.2,2.4-5.9,4.9-11.7,7.4-17.4,1.6,0,3.1,0,4.7.1,1.1,0,1.5.5,1.5,1.5,0,.6-.6,1.7.8,1.7,0,1.8,0,3.6,0,5.6-.2,3.1-.3,6-.3,9,0,0,.2.2.4.2,0,.2,0,.5,0,.9-.2.2-.4.3-.6.4-.6-.7-1.2-1.4-1.9-2.3q.3-1.8-.6-2.6c-.2,2.1-.3,4.2-.5,6.3-.1,0-.2,0-.4,0l-.9-5c-.2,0-.4,0-.6,0,0,3.2,0,6.5,0,9.7,0,.5-.5,1-.7,1.5,0-3,0-5.9,0-9.1,0-.5,0-.7,0-1Z"/>
  <path class="st0" d="M77.5,29.8s.2,0,.2.1c2,1.5,4,2.8,6,4,.3.2.7.2,1,.3,0,0,0,0,0,.1,0,.5,0,.8,0,1.2-.2.7-.3,1.3-.5,2-1,.2-2,.3-2.3-1.2-.2-1.1-.9-1-1.9-.7.2.4.3.7.5,1,1,1.8,2,3.5,2.9,5.3.2.4,0,1,0,1.5-.3,0-.6,0-.9-.2,0-.2,0-.4,0-.6-.6-4.1-4.5-7.4-8.6-7.8-5.3-.5-9.8,3-10.9,7.8.2,0,.4.1.6.3,0,0,0,.2,0,.2-.1,0-.2.2-.2.4,0,.4,0,.6,0,.9-.2.1-.4.2-.5.2-.2-.5-.3-1-.5-1.4-.2.1-.4.2-.6.3.3.4.7.8,1,1.3-.6,1.5-2.5,2-3.6,1-.5-.4-1.2-.8-1.8-1.3.5-3.5,1.7-6.4,3.8-9.2,2.2-2.9,5-4.5,8.3-5.3,2.3-.5,4.9-.1,7.3-.1.3,0,.5-.1.8-.2Z"/>
  <path class="st0" d="M161.6,53.1c-.3-.3-.7-.7-.8-1.1,0-.5,0-1.1,0-1.5-1.6-1.2-3.1-2.3-4.7-3.6-.2.7-.5,1.6-.9,2.4-1.1,2.8-3,5.1-5.7,6.1-1.8.7-4,.4-6.1.3,0-.2,0-.3,0-.4,8.2,1.3,13.8-7.1,11.2-13.5-.9-2.3-2.5-4.1-4.5-5.6-1.5-1.3-3-2.4-4.8-3.9,1.5.1,2.8.2,4.1.4,0,.4,0,.9.3,1.1.5.3,1.1.6,1.7.7.2,0,.4-.3.7-.5-.4-.3-.8-.5-1.1-.9-.6-.6-1-1.3-1.6-2,.1,0,.2-.2.4-.3.5,0,.9.1,1.5.2.6,0,1,.2,1.5.2,0,0,0,0,0,.1.4.3.7.4,1.1.6,0,0,.1,0,0,.2.3,1.3.6,1.3,1.8.3.1-.8.2-1.4.3-2.2,0-.2.2-.2.4-.2,1.6,0,3.1,0,4.6,0,0,0,0,0,0,.1,0,1.9.2,3.7.4,5.5,0,0,.1,0,.1,0,0,5.7,0,11.4,0,17.2Z"/>
  <path class="st0" d="M93,41.6s0,0,.2,0c.2-.6.3-1.2.4-1.7,0,0,0,0,.1,0,.1-.2.1-.5.2-.7,0-.2,0-.4.3-.6.5-.3,1-.4,1.1-.8,1.4-3.1,3.8-5.2,6.9-6.5.4-.2.7-.8,1.1-1.2,0,0,0,0,.3,0,.9,0,1.7.1,2.4,0,.3,0,.5-.5.8-.7,1,0,1.9,0,3,0,1.2.3,2.3.5,3.3.6,0,0,.1,0,.3.1.3.2.6.2.8.3,1.5.9,2.9,1.8,4.7,2.9,0-3.2,0-6.3.1-9.3.1,2.6.1,5.3.1,7.9.1,0,.3,0,.4,0,0-.2,0-.4.2-.5.2.8.2,1.6.3,2.3-1.1.1-1.9.3-2.6.3-.4,0-.8-.3-1.1-.6-.5-.5-1-1-1.5-1.6-1,1.7-1,1.6-2.5.9-.3-.1-.7-.2-1-.2-.2,0-.4.6-.3.7.5.8.9,2,1.6,2.3,2.6,1,4.3,2.8,5.9,5.1,1.4,2.4,1.3,4.9,1.2,7.6-.2.7-.4,1.2-.6,1.7,0-.2-.2-.4-.3-.7,0-.3.2-.6.3-.8,0-.2,0-.4,0-.8,0-1.1,0-2.1,0-3.1,0-.2-.2-.4-.4-.7-.7-4.3-5.1-8.2-9.5-8.2-5.6,0-9.4,3.9-10.5,8.5-.4,1.8,0,3.9,0,5.9-.2,0-.4,0-.5-.1-.2-1.5-.3-2.8-.5-4-.5-.1-1.1-.1-1.3-.4-1-1.2-2.1-.9-3.3-.7,0-1.1-.1-2-.2-2.9M97.4,42.3c.2.3.3.7.5,1,.1,0,.2,0,.4-.1,0-.5-.2-1-.3-1.5-.2.1-.4.3-.6.6M119.4,32.6s0,0,0,0Z"/>
  <path class="st0" d="M79,56c0,0,.2-.2.4-.3.3-.2.4-.3.5-.5.2-.2.5-.3.6-.5.5-2.4,2.3-2.3,4.1-2.2,1.1,0,2.3,0,3.7,0-1.9,4.7-4.9,8.1-9.6,9.6-6.8,2.1-12.9.9-17.9-4.5.2-.3.3-.4.4-.5-.3-.2-.5-.4-.9-.6-.6-1.4-1.2-2.7-1.8-4.1.1-.7.2-1.2.4-1.7.2,0,.3,0,.5,0,.2.5.5,1,.7,1.5.2.6.3,1.3.6,1.9.2.3.6.7.9.6.3,0,.6-.6.6-.9,0-.7,0-1.3,1.1-1.1.4.6,1,1.2,1.1,1.8.2,1.2.7,1.6,1.9,1.7.3,0,.6.2.9.3,2.7,1.9,5.7,2.1,8.8,1.4,1.1-.2,2-1.2,3-1.8Z"/>
  <path class="st0" d="M196.4,39.7c-.5-.7-1.2-1.4-1.5-2.2-.8-2.6-3.2-3.6-4.7-5.4-.2.2-.5.5-.7.7.6.2,1.1.4,1.7.6-.1.2-.2.4-.4.6-1.1-.4-2.2-.9-3.6-1.4.6-.4,1-.6,1.4-.8,0-.1,0-.3,0-.4-.5-.1-1.4-.4-1.5-.3-.8,1.5-2.2.9-3.5,1.2.3.4.6.6.9.9-.4.3-.7.6-1.3,1,1.1.3,2.1.5,3.1.8.1,0,.1,0,.1,0,0,.2.2.5.2.9-1.1-.2-2.1-.7-3.1-.9-4.9-.8-8.3,1.4-10.9,5.4-.2.2-.3.4-.3.6,0,0,0,0,0,0-.3.5-.4.9-.6,1.3,0,0,0,0-.1,0-1.1,1.1,0,1.2.7,1.5,0,.6-.2,1.2-.2,1.8.1,0,.3,0,.4.1-1.3,1.7-2.3,1.1-5-3.4-.3.7-.8,1.2-.8,1.6,0,2.5,0,5,.4,7.5.2,1.4,1.2,2.6,2,4,.6.9,1.1,1.6,1.6,2.3.2.3.3.7.4,1.1-3.1-2.8-4.8-6.2-5.2-10.3-.5-5.1.5-9.8,3.9-13.8,1.2-1.4,2.7-2.4,4.3-3.5.6,0,1.1.1,1.5,0,2.2-1.3,4.6-1.3,7.1-1.3,1.1,0,2.1-.2,3.2-.3,5.5,1.2,9,4.7,11,9.9-.2.1-.3.1-.3.2Z"/>
  <path class="st0" d="M279.2,62.3c-1.3,0-2.6,0-4,0-.2,0-.3,0-.4,0-.4,0-.8-.1-1.3-.4,0-7.5,0-14.8,0-22,0-3.3,0-6.7,0-10,.4-.2.8-.7,1.2-.7,4.9-.3,4.9-.3,4.9,4.6,0,5.4,0,10.8-.2,16.4-1.7,0-1.7,1.6-2.3,2.5-1.4,1.7-3.3,3.1-3,5.8.3,3.1,0,3.1,3.3,3.2.6,0,1.2.4,1.8.6Z"/>
  <path class="st0" d="M119,49.8c.2-.6.4-1.1.7-1.8.6,1.3,1.1,2.8,1.5,4.2.1,0,.2,0,.3,0,.2-.7.3-1.4.5-2.1h.5c.3.6.6,1.4.9,2.2.5-.4.8-.7,1.2-.8,0,1.7,0,3.3,0,4.8,0,.4.3.9.5,1.3,0,.4,0,.9,0,1.5,0,1.1,0,2.1,0,3-1.9.1-3.9.3-5.9.4-.1-1.5-.2-2.7-.4-4.1-.1-.5-.2-.9-.2-1.3h-.4c-.4.5-.9,1-1.1,1.6-.5,1.3-1.4,1.9-2.8,1.9-.8-.3-1.5-.4-2.2-.6,0,.2,0,.5,0,.7.8,0,1.5,0,2.3.1-.1.4-.3.8-.4,1.1,0,0,0,0-.2,0-1.5,0-2.9.2-4.3.4-.3-1.3-.9-2.1-2-2.1l-.8.9c.7.3,1.4.5,2.1.8,0,.2-.2.3-.3.5-.9,0-1.7.1-2.6,0-1.6-.3-3.2-.8-4.9-1.3-.9-.8-1.7-1.4-2.5-2.2.1-.4.3-.8.5-1.2.5.6.7,1.1,1.1,1.4.9.6,1.9,1.2,2.9,1.7.3.1,1.1-.3,1.1-.5,0-1,.7-1,1.4-1,.3,0,.7-.1,1-.2-.5-.4-.9-.3-1.3-.4-.5-.2-.9-.5-1.4-.7.4-.3.8-.6,1.4-.8,3.2,1,6.1.7,8.9-1,2.4-1.5,4-3.6,4.8-6.2Z"/>
  <path class="st0" d="M151.4,69.3c2.3.3,2.1.2,3-1.9,1.1-2.8,1.8-5.6,1.4-8.8,1.5,1.3,2.8,2.4,4.1,3.5-.4.7-.7,1.5-1.1,2.2-.3.4-.8.6-1.2,1-.3.3-.6.6-1,.8.4.2.9.6,1.3.6.4,0,.9-.5,1.3-.7.3-.2.6-.5,1-.6,0,1-.3,1.9-.5,2.8,0,0,0,0,0,0-1.3,1.6-2.5,3.2-3.7,4.7,0,0,0,0,0,0-.1.2-.2.4-.3.5-3.9,3-8.3,3.6-13.1,2.8-1.6-.6-3-1-4.4-1.4,0,0,0,0,0-.1-.4-.5-.9-.9-1.3-1.2-1.1-1.1-2.8-1.7-3.1-3.5.6.1,1.2.2,1.5.5.9,1,3.9,1.2,4.9.3.2-.1.1-.5.3-.7,1.9.4,3.6.9,5.3,1.2.3,0,.7-.4,1.1-.6.2,0,.3-.1.6,0,1.6.2,3.1.2,4.1-1.2Z"/>
  <path class="st0" d="M151.4,31.2c-.5,0-.9-.1-1.4-.2-.1,0-.2.2-.4.3.5.7,1,1.3,1.6,2,.3.3.7.6,1.1.9-.2.2-.5.5-.7.5-.6-.2-1.2-.4-1.7-.7-.2-.1-.2-.7-.3-1.1-1.3-.1-2.6-.2-4.1-.4,1.9,1.4,3.4,2.6,4.7,3.8-7.8-3.6-15.5,2.9-14.3,10.7,0,.5,0,1,0,1.5-.6-2.2-2.1-3.8-2.9-5.8-.2,0-.4,0-.5,0,.1,1.5.2,3,.3,4.5-.2,0-.5,0-.7.1-.3-1-.6-2-.8-3-.2-.9-.2-1.8-.3-2.9,0-3.1,1.8-5.1,3.5-7.2,1.9-2.4,4.7-3.5,7.6-4.3.2,0,.4-.4.7-.6.2,0,.4,0,.6,0,.9,0,1.6-.2,2.4-.4.5,0,1.1,0,1.8.2.9.3,1.7.5,2.5.6,0,0,0,0,.1.1.5.5.9.9,1.3,1.2Z"/>
  <path class="st0" d="M224.3,38.5c-.4-.9-.8-1.8-1.2-2.8.9-.4,2.1,2.2,2.9,0,.1.9.3,1.7.4,2.4.2,0,.5,0,.7,0,0-1.3.2-2.6.2-4.1,1,.5,2,.6.9,1.8-.6.6,0,2.1.8,1.9,1.3-.3,1.3.6,1.5,1.3.2.6.4,1.3.4,2,.1,5.7.2,11.4.3,17.1,0,1.1-.2,2.2-.4,3.3,0,.2-.2.5-.3.5-.9,0-1.8-.2-2.6,0-1,.2-1.7,0-2.1-1-.1-4.3-.1-8.7,0-13.1.8-.9,1-3.8.4-4.5,0,0-.3,0-.4,0,0-.2,0-.5,0-.9.6-1.4,0-2.8-1.1-3.5,0,0,0,0,0,0-.2-.1-.3-.1-.4-.2,0,0,0,0,0,0Z"/>
  <path class="st0" d="M171,58.9c-.2-.5-.2-.9-.4-1.2-.5-.7-1-1.4-1.5-2.2.4-.2.7-.4,1.1-.4.3,0,.8.2,1,0,.8-.6,1.3-.6,1.4.6,0,.2.3.5.4.5,1.3,0,1.5,1.1,1.7,2.1,0,.1,0,.1,0,.1-.7-.2-1.3-.4-2-.5-.1,1,.7,1.7,2,2.2,2.4.8,4.6-.2,6.9,0,.6,0,1.3-.6,2-.9-1.9-1.9-4,.8-5.8-.7.3-.5.6-.9,1-1.3,2.6.4,5.1.8,7.3-.4,1.5-.8,2.8-2,4-3.2.6-.7,1.1-1.1,2.1-1,1.6,0,3.2,0,5.2,0-1.7,4.6-4.6,7.8-8.9,9.5-6.3,2.4-12.1,1.6-17.4-3Z"/>
  <path class="st0" d="M63.3,44.4c0-.2,0-.5,0-.8.1-.2.2-.3.2-.4,0,0,0-.1.1-.2.3,0,.4,0,.6,0,.6.2,1.1.4,1.7.4,5.5,0,11,0,16.6,0,.3,0,.6,0,.9.1,0-.5.2-1.1,0-1.5-.9-1.8-1.9-3.5-2.9-5.3-.2-.3-.3-.6-.5-1,.9-.3,1.6-.4,1.9.7.3,1.4,1.3,1.4,2.3,1.2.2-.7.3-1.3.6-2,.5.4.9,1,1.1,1.5.2.4.4.8.8,1.3,1.2,2.2,1.9,4.3,1.9,6.7,0,.3.4.7.6,1,0,.2,0,.5-.1.8-8.1.1-16,.1-23.8,0-.6-1-1.3-1.8-1.9-2.7Z"/>
  <path class="st0" d="M125.2,57.4c-.2-.3-.5-.7-.5-1.1,0-1.6,0-3.1,0-5,0-5.1,0-10,0-14.9,0-2.6,0-5.1,0-7.5h-.7v6.1c-1.7-2.1,0-4.7-1.6-6.5-.2,0-.3,0-.5,0,0,1.1-.1,2.3-.2,3.8-.5-.5-.7-.6-.8-.8-.3-1.5-.5-3-.7-4.5,0-.4-.4-.8-.6-1.4,0-2.4,0-4.6,0-6.9,0-.9.3-1.3,1.2-1.2,1.5.1,3,.2,4.5.3,0,.4,0,.7,0,1.1,0,12.8,0,25.5-.1,38.4Z"/>
  <path class="st0" d="M203.3,46.9c1.5.5,3,1.1,4.8,1.7v6.6c.2,0,.5,0,.7,0,0-4.2,0-8.3,0-12.6,0,6.1,0,12.3,0,18.5,0,1.2-.4,1.5-1.6,1.5-1.5,0-3,0-4.7,0,0-.7,0-1.3.2-2,.3-.7.5-1.2.5-1.8,0-3.9,0-7.9,0-11.8M208.5,60.6s0,0,0,0Z"/>
  <path class="st0" d="M26.3,59.2c-.7-1.8-1.4-3.6-2-5.6.5-.3,1-.5,1.3-.6.4-1.2,1-2.3,1.1-3.5.1-1,.5-1.1,1.3-.9.1,1,.1,1.8.3,2.6.1.5.6.9.9,1.3.3-.4.6-.8,1.1-1.2.2,0,.4,0,.6,0,.8-.3,1.5-.5,1.8.6.1.5.7.9,1,1.3.1-.6.3-1.2.4-1.7,0-.6-.1-1.3.2-1.7.2-.3,1.1,0,1.4,0,.6-.3,1.1-.6,1.6-.8,0,.3-.2.6-.3.9-.8,1.5-1.5,2.9-2.2,4.3-.8,1.7-1.5,3.4-2.3,5-.7.4-1.4.6-1.9,1.1-.7.6-1.2.7-1.6-.2-.4-1-1.2-1-2.2-.9-.3,0-.5,0-.7,0Z"/>
  <path class="st0" d="M28,48.5c-.8,0-1.2,0-1.3,1-.2,1.2-.7,2.3-1.1,3.5-.3.1-.8.3-1.3.5-.3-.2-.5-.4-.7-.9,0-.4.1-.7,0-.9-1.6-3.8-3.1-7.6-4.7-11.3-.6-1.4-1.4-2.6-2.1-3.9,0,0-.1,0-.2-.2,1.7-1,1.6-1,2.3,1,.2.5.7.9,1.1,1.3.2-.5.5-1,.7-1.5.1-.3.2-.5.4-.9.5.2.9.4,1.5.7.6.8,1,1.5,1.4,2.2.5.8,1,1.6,1.5,2.4.1.2.2.5.3.9.5,1.7,1,3.2,1.6,4.6,0,.2.6.3.9.5,0,.2,0,.4,0,.8-.2.1-.2.1-.3.2Z"/>
  <path class="st0" d="M45.8,44.9c.3-.6.8-1.1.8-1.6,0-3.2,0-6.5,0-9.7.2,0,.4,0,.6,0l.9,5c.1,0,.2,0,.4,0,.2-2.1.3-4.2.5-6.3q.9.8.6,2.6c.7.9,1.3,1.6,1.9,2.4.1,4.7.1,9.2,0,13.7-1,.4-1.1,0-1.2-.8,0-.9,0-2-1.4-2.3,0,1.3-.1,2.5-.2,3.6-.2,0-.4,0-.6,0-.1-1.8-.2-3.6-.3-5.3-.5.6-1,1.1-1.6,1.6-.2,0-.3,0-.3,0,0-.9,0-1.9,0-3Z"/>
  <path class="st0" d="M13.9,51.6c0,2.7,0,5.5,0,8.3-.6-.5-1-1.2-1.5-1.9-1.5.6-3.6-.8-4.2-2.8,0-3.5,0-6.9.1-10.3.8.2,1.6.5,2.3.6,2.4.3,2.6.5,2.6,2.9,0,.7,0,1.5,0,2.2,0,.3.4.6.7,1Z"/>
  <path class="st0" d="M272.1,18s0,0,0-.2c.8-.9,1.6-1.7,2.4-2.5.3,0,.6,0,1.1-.1,1.1.2,2,.4,2.8.6,2,1.7,2.6,3.6,1.8,5.5-.8,2-2.6,2.8-5.7,2.5-1-.9-1.9-1.7-2.7-2.6,0-.6,0-1.2,0-2,0-.6.1-.9.1-1.2Z"/>
  <path class="st0" d="M130.9,41.5c.1.9.2,1.8.3,2.7.2,1,.5,2,.8,3,.2,0,.5,0,.7-.1-.1-1.5-.2-3-.3-4.5.2,0,.4,0,.5,0,.8,2,2.3,3.6,2.9,5.9.1.1,0,.2,0,.3.2.8.3,1.4.6,2,0,0,.5,0,.8,0,.8.9,1.4,1.7,2.1,2.6-.7-.3-1.4-.6-2.1-.7-.6-.1-1.2-.1-2-.2.7,1.4,2.4,2,1.5,4.1-.6-.7-1.2-1.2-1.6-1.7-.5-.7-1-.9-1.8-.2-.5,0-.9-.2-1.2-.3,0,0-.1,0,0-.2-.2-.5-.4-.7-.6-1,0,0,0,0,0,0,0-.1,0-.2-.2-.2,0,0-.1-.2-.2-.5-.1-1-.2-1.8-.4-2.6-.7-2.8-.9-5.5.1-8.2Z"/>
  <path class="st0" d="M258.1,39c.1.2.3.4.5.7.4.5.7.9.9,1.2.2.3.3.5.6,1,.3.4.5.7.7.9.3.5.5,1,.9,1.6.2.2.4.3.5.4,0,0,0,.1,0,.3.4.6.8,1.1,1.2,1.6.7,1.6,1.3,3.2,2,4.8.2.6.4,1.2.5,1.9-.3.4-.6.6-.8.9-.2.3-.2.6-.3.9-2.1-5.4-4.9-10.4-8.5-14.9-.6-.7-1.2-1.4-1.9-2.2-.1,0,0,0,0,0-.6-.9-1.2-1.8-1.9-2.9.3-.8.6-1.5,1-2.1.2,0,.2,0,.3.1.5.8,1.1,1.5,1.6,2.2,0,0,0,.1.1.2.2.2.3.3.4.4,0,0,0,.1,0,.3.6.7,1,1.3,1.5,1.9,0,.2.2.3.3.6.1.2.2.3.3.3Z"/>
  <path class="st0" d="M279.3,62.3c-.7-.2-1.3-.5-1.9-.6-3.2,0-3,0-3.3-3.2-.3-2.8,1.7-4.1,3-5.8.6-.8.6-2.4,2.3-2.3,0,3.9,0,7.9,0,11.9Z"/>
  <path class="st0" d="M14,51.5c-.3-.2-.7-.5-.7-.8-.1-.7,0-1.5,0-2.2,0-2.3-.2-2.6-2.6-2.9-.7,0-1.5-.4-2.3-.8-.1-2.6-.1-5-.1-7.4,1.4.4,2.7,1.6,4.2.4.3.4.7.8.8,1.3.1.9,0,1.9,0,2.8,0,.4.3.8.6,1.2.1,2.8.2,5.5.2,8.4Z"/>
  <path class="st0" d="M253.3,33.1c-.3.6-.6,1.3-.9,2-2,2.6-4,5.2-6.1,7.7-.9,1.2-1.6,2.3-2.5,3.5,0-.8,0-1.7.2-2.5,0,0,0,0-.1,0,0,0-.2,0-.2,0,2.2-3,4.2-6.1,6.5-9,.9-1.1.8-1.8,0-2.7-1.3-1.5-2.5-3.1-3.7-4.8,0-.2-.2-.3-.3-.4,0,0,0,0,0-.1-.3-1-.6-1.9-.9-2.7,0,0,0,0,.1,0,.7.5,1.3.9,1.9,1.4,0,0,0,0,0,.1.7,1,1.5,1.9,2.2,2.7,0,0,0,0,0,.1.5.6,1,1.1,1.5,1.6.7.7,1.3,1.3,1.8,2,.2.4.4.8.6,1.1Z"/>
  <path class="st0" d="M273.4,29.9c.2,3.3.2,6.7.2,10,0,7.3,0,14.5-.1,22-.3,0-.8-.3-.8-.6,0-5.2,0-10.4-.1-15.7,0-.9-.2-1.8-.2-2.6,0-3.8,0-7.7,0-11.5,0-.7-.1-1.5,1.1-1.6Z"/>
  <path class="st0" d="M247.2,25.2c-.6-.4-1.2-.8-1.9-1.4-1.1-1.9-2.1-3.7-3.1-5.5-.2.1-.4.2-.5.3.4.8.9,1.5,1.3,2.4.3.7.4,1.5.7,2.3-3.2-5-5.6-10.3-6.5-16.3,1-.3,1.7-.7,2,.6,1.3,6.5,4.5,12.1,8.1,17.6Z"/>
  <path class="st0" d="M243.9,43.8c0,.8-.2,1.6-.2,2.6,0,.3,0,.4-.2.6,0,0,0,.1-.2.3-.4.7-.5,1.2-.7,1.8,0,0,0,0-.1.1-.3.4-.4.8-.5,1.1-1.1,3.8-2.3,7.5-3.3,11.3-.3,1.2-1,.9-2,.8.9-6.7,3.2-12.8,6.8-18.5,0,0,.2,0,.3,0,0,0,0,0,0,0Z"/>
  <path class="st0" d="M8.2,55.4c.6,1.9,2.8,3.2,4.2,2.6.4.7.9,1.4,1.4,2,.1.6.2,1.1,0,1.8-1.3,0-2.4,0-3.5.1-1.4.1-2.6,0-2.5-1.9v2.3c-.1-.4-.3-.8-.3-1.2,0-5.6,0-11.3.1-16.9.2,3.2.2,6.3.3,9.5,0,.5.2,1.1.3,1.6Z"/>
  <path class="st0" d="M78.9,56c-.9.6-1.8,1.6-2.9,1.8-3.1.7-6.1.4-8.8-1.4-.3-.2-.6-.3-.9-.3-1.1,0-1.7-.5-1.9-1.7-.1-.6-.6-1.2-1.1-1.9-.4-.9-.9-1.7-1-2.4-.1-.8.1-1.7.4-2.5,8.9,0,17.6,0,26.3,0-.5.1-1,.4-1.5.4-7.8,0-15.6,0-23.4,0-.4,0-.8,0-1.7,0,.7,1.6,1,3.2,1.9,4.5,3.4,5,8.6,6.3,14,3.6.1,0,.3-.1.6-.2Z"/>
  <path class="st0" d="M58.5,52.6c.6,1.3,1.2,2.6,1.7,4-.2.1-.3.1-.3.1-3.1-3.7-3.8-8-3.3-12.7,1.2-10.6,10.5-17.1,20.7-14.3-.2.1-.4.3-.7.3-2.5,0-5-.4-7.3.1-3.3.7-6.1,2.4-8.3,5.3-2.1,2.8-3.3,5.7-3.8,9.3,0,1.7-.2,3.1,0,4.5.2,1.2.8,2.3,1.2,3.4Z"/>
  <path class="st0" d="M30.8,51.3c-.1,0-.3,0-.6,0-.5-.2-.7-.4-.9-.6.8.5,1-.1,1.2-.7,4.5-10.6,9-21.3,13.6-31.9,0-.2.2-.3.6-.5.3,0,.3,0,.4,0-2.4,5.8-4.9,11.5-7.3,17.5-.3.7-.7,1.1-.8,1.6-.8,2.1-1.5,4.2-2.4,6.4-1.3,2.7-2.5,5.4-3.7,8.1Z"/>
  <path class="st0" d="M174.1,54.8c-1.3-1.8-2.6-3.5-3-5.7-.3-1.5.3-1.8,1.5-1.8,2.5,0,5,0,7.5,0,5.2,0,10.3,0,15.5,0q2.1,0,2.1-2c0-.3,0-.6.1-1,.2,1.1.2,2.4.3,3.7h-26.4c.5,3.7,2.2,6.3,5.2,8.3-.7-.3-1.6-.7-2.5-1.1-.2-.2-.3-.3-.4-.3Z"/>
  <path class="st0" d="M146.5,70.4c-.3.3-.7.7-1,.7-1.8-.3-3.5-.8-5.4-1.2-.4,0-.5,0-.6-.1-.4-.6-.8-1-1.3-1.5-.6-.8-1.5-1.5-1.7-2.3-.3-1.3-1-1.5-2.1-1.4-.6,0-1.3,0-1.9,0-1.3,0-1.9.7-1.4,1.8.6,1.3,1.6,2.4,2.4,3.5.3,1.8,2,2.4,3.2,3.5.4.4.8.7,1.2,1.2-4.4-2.1-7.1-5.7-8-10.7,2.2,0,4.2,0,6.2,0,.3,0,.7.3.8.6,1.5,4.7,5.1,5.9,9.7,6Z"/>
  <path class="st0" d="M203.3,46.8c0,4.1,0,8,0,12,0,.5-.2,1.1-.4,1.6-.1-6.5-.2-13-.2-19.4,0-3.4,0-6.7,0-10.1,0-.9.3-1.3,1.2-1.3,1.5,0,3,0,4.6.2-1.2.2-2.4.5-3.6.4-1.3,0-1.7.4-1.6,1.7,0,4.9,0,9.8,0,14.9Z"/>
  <path class="st0" d="M130.9,41.4c-1.1,2.8-.8,5.6-.1,8.3.2.8.3,1.6.4,2.6-4.6-7.7.4-20.3,9.1-22.7.5-.1,1-.2,1.7-.3.4,0,.5,0,.7,0-.2.2-.4.5-.6.5-2.9.8-5.6,1.9-7.6,4.3-1.7,2.1-3.5,4.2-3.5,7.2Z"/>
  <path class="st0" d="M253.4,33.1c-.3-.3-.5-.7-.7-1.2.6-1.1,1.3-2,1.9-2.9.8-1,1.7-2.1,2.7-3.2.3-.2.3-.3.4-.5,0,0,0,0,.1-.2.2-.1.2-.2.2-.3,0,0,0-.2.3-.3.2-.2.3-.3.3-.5,0-.1.1-.3.3-.5.2-.2.3-.3.3-.5,0-.1,0-.2.3-.4,1.7.5.5,1.5.5,2.3-.3.4-.6.8-.9,1.1-.1,0-.2,0-.2,0,0,0,0,.1,0,.3,0,.1,0,.2,0,.2-.2.2-.3.3-.6.6-1.3,1.7-2.4,3.2-3.6,4.7-.2.2-.3.3-.6.6-.2.2-.4.3-.5.4,0,0-.1,0-.3,0Z"/>
  <path class="st0" d="M8.2,55.3c0-.4-.3-.9-.3-1.5,0-3.2,0-6.4-.2-9.6-.1-8.7-.2-17.3,0-26.1.3-.2.4-.2.5-.2,0,6.4,0,12.8,0,19.4,0,2.6,0,5,0,7.6,0,3.5,0,6.9,0,10.4Z"/>
  <path class="st0" d="M25.5,41.4c-.5-.7-1-1.5-1.5-2.3-.4-.7-.8-1.4-1.3-2.2-.9-2.3-1.6-4.5-2.5-6.6-1.3-3.2-2.7-6.3-4.1-9.5-.4-.9-.5-1.8-.7-2.8,2.3,5.1,4.6,10.4,6.9,15.7,1.1,2.5,2.1,5.1,3.1,7.8Z"/>
  <path class="st0" d="M98.5,58.9c.8.7,1.6,1.3,2.5,2.2,0,.2,0,.3,0,.3-4.8-2.4-7.5-6.4-8.3-11.6-.4-2.6,0-5.3.2-8,.1.8.2,1.8.3,3,0,1.1,0,2,0,3,.2,4.6,1.7,8.4,5.4,11.2Z"/>
  <path class="st0" d="M26.3,59.3c.2-.1.4-.1.7,0,.7,2.3,1.5,2.9,3.6,2.7,1.6-.1,2-1.4,2.2-2.8.7-1.7,1.4-3.4,2.2-5,.7-1.4,1.4-2.8,2.2-4.3,0,0,.1,0,.1,0,0,.4.1.9,0,1.2-1.5,3.6-3,7.1-4.7,10.6-.2.5-.9,1-1.5,1-3.3.4-3.6.2-4.8-3.3Z"/>
  <path class="st0" d="M16.8,36.7c.7,1.2,1.5,2.4,2.1,3.8,1.6,3.7,3.2,7.5,4.7,11.3,0,.2,0,.5,0,.8-2.3-5.2-4.5-10.5-6.8-15.9Z"/>
  <path class="st0" d="M260,25c0-.8,1.2-1.7-.4-2.3.8-1.5,1.7-3.1,2.8-4.7.2-.2.3-.4.3-.5.2-.4.3-.8.7-1.3.4.5.7,1.1,1,1.7,0,.3-.2.5-.4.9-.2.2-.2.3-.4.4-.3.5-.5.9-.7,1.4,0,.2-.1.4-.2.6,0,0-.2.1-.2,0,0,0-.1.2-.2.4,0,.3-.1.4-.2.6-.4.5-.8,1.1-1.2,1.8-.3.4-.6.7-.8.9Z"/>
  <path class="st0" d="M52.1,53.8v8.7h-6.4c0-1.7,0-3.5,0-5.4,0-.2.2-.1.2,0,0,1.2.3,2.2.3,3.2,0,1,.5,1.4,1.3,1.4,1.3,0,2.6,0,4,0,0-.7,0-1.1,0-1.7,0-2.1,0-4.1,0-6.1.2,0,.3,0,.4,0Z"/>
  <path class="st0" d="M252.1,46.6c-1.8,0-3.5,0-5.2,0,0-.2-.1-.3-.2-.5.3-.2.6-.6.9-.6,3.1,0,6.3,0,9.4,0,.2,0,.4.2,1,.5-2.1,1-4,.4-5.9.6Z"/>
  <path class="st0" d="M37.3,49.6c0,0,0,0,0,0,0-.2.1-.5.2-1,.7-1.8,1.3-3.4,2-5.1.9-2,1.7-4,2.5-5.9.4-.6.8-1.3,1.4-1.9-.2,1-.5,2-.9,2.9-1.5,3.4-3,6.8-4.6,10.3,0,.2-.3.3-.5.6Z"/>
  <path class="st0" d="M101.1,61.4c0,0,0-.2,0-.3,1.6.3,3.2.8,4.8,1.1.8.2,1.7,0,2.6,0,0-.2.2-.3.3-.5-.7-.3-1.4-.5-2.1-.8l.8-.9c1.2,0,1.8.8,2,2.1,1.4-.2,2.8-.3,4.3-.4-4.1,2-8.3,1.6-12.5-.4Z"/>
  <path class="st0" d="M254,53.8c-2.6,0-5.1.2-7.8-.1,1.1-1.1,10-1.2,11.6,0-1.2,0-2.4.1-3.8.2Z"/>
  <path class="st0" d="M257.5,38c-.5-.5-1-1-1.5-1.7.6-.6,1.3-1.1,1.9-1.6.6-.5,1.2-1,1.7-1.5.4.6.9,1.3,1.3,1.9.2.3.2.8.3,1.5-1.7-.4-3.5-1.3-3.8,1.5Z"/>
  <path class="st0" d="M52.1,53.7c-.1.2-.2.2-.4,0,0-1,0-1.9,0-2.7,0-4.5,0-9,0-13.7.1-.2.2-.3.4-.4,0,5.5.1,11.1,0,16.8Z"/>
  <path class="st0" d="M264.9,55.3c0-.4.1-.7.3-1,.2-.3.4-.5.8-.8.2.2.3.5.4.8,0,.1,0,.2-.1.2,0,.2,0,.4.1.7.1.3.3.4.4.6.5,2,1.1,4,1.5,6.1,0,.1-.6.4-.9.5.1-.3.4-.5.4-.6-.4-1.3-.9-2.6-1.4-3.8-.2-.4-.6-.6-.9-.9,0,0,0-.1,0-.3,0-.4-.2-.7-.3-.9,0-.1-.2-.3-.3-.5Z"/>
  <path class="st0" d="M251.8,49.1c2.1,0,4,0,6,0,0,.2,0,.4,0,.6-.3.1-.6.3-.9.3-3,0-6,0-9,0-.4,0-.8-.3-1.2-.5.4-.2.8-.5,1.2-.5,1.2,0,2.4,0,3.8,0Z"/>
  <path class="st0" d="M250.9,18.6c-1.5,0-2.8,0-4.4,0,1.1-1.2,9.9-1.3,11.3-.1-2.3,0-4.5,0-6.9.1Z"/>
  <path class="st0" d="M125.3,17.8c-1.5,0-3,0-4.5-.2-.9,0-1.2.3-1.2,1.2,0,2.2,0,4.5,0,7,0,2,0,3.7,0,5.4,0,.2,0,.4,0,.6-.1,0-.3,0-.4,0,0-2.7,0-5.3,0-8.1-.1-2,0-4-.2-5.9,0-1.1.7-.9,1.5-.8.4,0,.5,0,.7,0,.7,0,1.5,0,2.5,0,.7.2,1.1.2,1.6.3,0,.1,0,.3,0,.5Z"/>
  <path class="st0" d="M103.1,29.9c-.2.4-.5,1-1,1.2-3.1,1.4-5.5,3.4-6.9,6.5-.1.3-.6.5-1.1.7,1.6-4.2,4.7-6.9,9-8.5Z"/>
  <path class="st0" d="M89.1,46.2c-.3-.2-.7-.6-.7-.9,0-2.4-.7-4.6-1.9-6.9-.3-.6-.5-.9-.7-1.3-.3-.5-.7-1-1.1-1.6-.1-.4-.1-.7,0-1.2,2.7,2.5,3.9,5.8,4.3,9.6,0,.6,0,.9.1,1.3,0,.2,0,.5,0,.8Z"/>
  <path class="st0" d="M252.7,22.3c-1.9,0-3.7.3-5.4-.2,0-.2,0-.4,0-.6h10.2q-.7.7-4.8.8Z"/>
  <path class="st0" d="M253.4,41.9c1.1,0,2.1,0,3.1,0,0,.2,0,.4,0,.5-.2.1-.5.4-.7.4-2.2,0-4.4.2-6.6.2-.4,0-.7-.4-1.1-.6.4-.2.7-.5,1.1-.6,1.3,0,2.6,0,4.1,0Z"/>
  <path class="st0" d="M265.3,11.5c.3-1.3.7-2.5,1.1-3.9.6.2,1,.5,1.4.8,0,.1,0,.3-.2.6-.3.7-.4,1.3-.5,2-.3.9-.6,1.7-1,2.7-.6-.2-1-.5-1.4-.8,0-.2.1-.5.3-.8.1-.3.2-.4.2-.5Z"/>
  <path class="st0" d="M89.1,47.4c-8.8,0-17.5,0-26.3,0,.7-.1,1.5-.2,2.3-.2,7.9,0,15.8,0,23.8,0,.2,0,.2.1.2.2Z"/>
  <path class="st0" d="M255,32.1c1-1.6,2.1-3.1,3.4-4.7.4.7.7,1.4,1.1,2.4-.4,0-.9-.2-1.4-.3-.2.8-.2,1.8-.7,2.4-.4.4-1.5.2-2.4.2Z"/>
  <path class="st0" d="M256.2,25.5c-2.3.9-4.6.5-6.8.4,0-.3,0-.5,0-.8,2.3,0,4.6-.4,6.8.4Z"/>
  <path class="st0" d="M254.5,28.9c-.5.9-1.1,1.8-1.7,2.8-.6-.5-1.2-1.1-1.9-1.9-.2-.3-.3-.4-.4-.5,1.2-.8,2.5-.9,4-.4Z"/>
  <path class="st0" d="M231.9,62.3c-.1-.9-.1-1.9,0-3.1.1-.3.1-.3,0-.4,0-1.7,0-3.3,0-5.3,0-3.3,0-6.2,0-9.2,0-.7,0-1.4,0-2.3,0,.3.2.7.2,1.1,0,6.1,0,12.3,0,18.4,0,.3-.1.5-.3.8Z"/>
  <path class="st0" d="M185.7,29.6c-1,.1-2.1.3-3.2.3-2.4,0-4.8,0-7.1,1.3-.3.2-.9,0-1.4,0,1.4-.6,2.8-1.2,4.5-1.7.3,0,.4,0,.5-.1.2,0,.5,0,.9,0,1.3,0,2.4,0,3.5,0,.6,0,1.2.1,1.9.2.1,0,.2,0,.2,0,0,0,0,0,0,0Z"/>
  <path class="st0" d="M253.1,14.1c1.3,0,2.7-.2,4-.2.2,0,.5.3.7.5-.2.2-.5.6-.7.6-1.4,0-2.7,0-4.1-.2,0-.3,0-.5.2-.7Z"/>
  <path class="st0" d="M113.9,62c0-.3.2-.7.3-1.1,0-.1,0-.1,0-.1,1.3-.1,2.3-.7,2.8-2,.2-.6.8-1.1,1.1-1.7h.4c0,.5,0,.9,0,1.3-1.6,1.3-3.1,2.4-4.7,3.6Z"/>
  <path class="st0" d="M270.3,15.4c-.5-.3-1-.7-1.1-1.1,0-.4.3-1,.7-1.2.5-.3,1.2-.2,1.8-.2,0,.5.2,1.1,0,1.4-.3.5-.8.7-1.4,1.1Z"/>
  <path class="st0" d="M8.3,17.8c-.2,0-.4.1-.6.1,0-.2.2-.7.4-.7,2.3,0,4.7,0,7,0,.1,0,.3.3.4.5-2.4,0-4.7,0-7.2,0Z"/>
  <path class="st0" d="M52.2,35.7c-.2,0-.4,0-.4,0,0-2.9,0-5.9.3-8.8.1,2.9.2,5.8.2,8.9Z"/>
  <path class="st0" d="M84.7,34.2c-.3,0-.7,0-1-.2-2-1.3-3.9-2.6-5.9-4,2.7.5,5,2,6.9,4.2Z"/>
  <path class="st0" d="M278.6,15.6c-.9,0-1.7-.3-2.7-.5.2-1.5,1.9-2.4,3-2-.1.8-.2,1.6-.3,2.5Z"/>
  <path class="st0" d="M46,56.9s-.1,0-.2,0c0-2.9,0-5.9,0-9,.1-.1.2-.1.4,0,.1,1.8.1,3.5.1,5.3,0,1.3-.2,2.4-.3,3.6Z"/>
  <path class="st0" d="M276.5,25.2c1,.1,2,.2,2.9.4,0,.1,0,.3,0,.4h-5.6c.8-1.2,1.7-1,2.8-.7Z"/>
  <path class="st0" d="M243.7,23.4c-.2-.9-.4-1.7-.7-2.4-.3-.8-.8-1.6-1.3-2.4.2-.1.4-.2.5-.3,1,1.8,2,3.6,2.9,5.5,0,.1,0,.1-.1.1-.4,0-.7,0-1,0-.1-.1-.3-.3-.4-.5Z"/>
  <path class="st0" d="M132.3,54.6c.3,0,.6,0,1.1.2.9.9,1.6,1.8,2.4,2.8.4.5.8.9,1.2,1.5-1.5-1.4-3.1-2.9-4.6-4.5Z"/>
  <path class="st0" d="M155.8,32.7c-1.1.9-1.3.8-1.6-.4.6.2,1.2.4,1.2-.5,0-.7,0-1.4,0-2.3.8,0,1.5,0,2.2.1-.3.3-.7.4-1.1.5,0,0-.2,0-.4.3-.2.8-.2,1.5-.3,2.2Z"/>
  <path class="st0" d="M29.3,50.6c.2.3.5.5.8.7-.2.4-.5.8-.9,1.2-.3-.4-.8-.8-.9-1.3-.2-.8-.2-1.6-.3-2.6,0-.1.1-.1.3-.2.4.7.7,1.3,1,2.2Z"/>
  <path class="st0" d="M259.6,40.9c-.4-.3-.7-.7-1-1.1,1-.8,2.1-1.5,3.1-2.3.2,1.5-.9,2.4-2.1,3.4Z"/>
  <path class="st0" d="M260,25.1c.2-.3.5-.6.8-.9.1,1.1-.4,2.3.6,3.3,0,0-.3.6-.4.8-.7-.6-1.2-1.1-1.8-1.5-.1,0-.1-.1,0-.3,0-.2.1-.2.1-.3.3-.3.5-.7.8-1.1Z"/>
  <path class="st0" d="M263.7,19.2c0,0,.1-.2.3-.3,2.1.8,2.4,1.4,1.1,2.9-.5-.6-1-1.1-1.6-1.8,0-.4,0-.6.2-.8Z"/>
  <path class="st0" d="M156,72.7c1.1-1.5,2.3-3.1,3.6-4.7-.6,1.9-1.7,3.5-3.6,4.7Z"/>
  <path class="st0" d="M45.2,17.7c-.2,0-.3,0-.5,0,.8-.2,1.6-.4,2.5-.4,1.3,0,2.6,0,3.8.3-.4.2-.9.2-1.3.2-1.5,0-3,0-4.6,0Z"/>
  <path class="st0" d="M28.2,47.4c-.3,0-.8-.1-.9-.3-.6-1.4-1.1-2.9-1.6-4.5.8,1.5,1.6,3.1,2.4,4.8Z"/>
  <path class="st0" d="M225.8,43.3c.2-.1.4-.2.5,0,.6.7.5,3.6-.3,4.3-.1-1.4-.2-2.7-.1-4.2Z"/>
  <path class="st0" d="M49.9,17.8c.3,0,.7-.1,1.2-.2.8-.7,1.1-.4,1.1.4,0,.9,0,1.9,0,2.9-1.4,0-.8-1-.8-1.6,0-1.1-.4-1.5-1.5-1.5Z"/>
  <path class="st0" d="M43.7,35c.4-1.6.8-3.1,1.2-4.7.3,0,.5.2.7.5-.1.4-.2.6-.2.7-.4,1.1-.9,2.2-1.4,3.4-.1,0-.2.1-.2.1Z"/>
  <path class="st0" d="M265.4,57.1c.3.2.8.5.9.8.5,1.3,1,2.5,1.4,3.8,0,0-.2.3-.4.5,0,0-.2.1-.3,0-.2-.1-.3-.2-.4-.2-.2-.7-.3-1.4-.4-2.2,0-.3,0-.5-.1-.7,0-.2,0-.4,0-.8,0-.3-.1-.4-.2-.5,0-.2-.2-.5-.3-.8Z"/>
  <path class="st0" d="M274.5,15.2c-.7.9-1.5,1.7-2.4,2.5-.8-.9-.2-1.7.5-2.2.5-.3,1.2-.3,1.9-.4Z"/>
  <path class="st0" d="M264,14.9c0-.3.1-.6.4-1,.7,0,1.2.1,1.7.2-.2.6-.4,1.1-.8,1.8-.5-.3-.9-.7-1.2-1Z"/>
  <path class="st0" d="M159.7,68c0-.9.3-1.7.5-2.7.2-.6.5-1.2.8-1.7-.3,1.5-.8,2.9-1.3,4.4Z"/>
  <path class="st0" d="M254.3,38.1c-.2.3-.4.9-.7.9-.8.1-1.7,0-2.9,0,1.1-1.4,2.3-.7,3.5-.9.1,0,.1,0,.1,0Z"/>
  <path class="st0" d="M138,74.8c1.4.3,2.8.7,4.2,1.2-1.4-.3-2.8-.7-4.2-1.2Z"/>
  <path class="st0" d="M252.9,14.1c0,.2,0,.4-.1.6-.9.1-1.7.1-2.8.1-1.2,0-2,0-2.9,0,0-.2-.1-.4,0-.6,1.1,0,2-.1,2.9-.2.9,0,1.9,0,3,.1Z"/>
  <path class="st0" d="M243.7,46.8c0,0,0-.2.2-.5.8-1.2,1.5-2.4,2.3-3.5-.7,1.3-1.6,2.6-2.5,4Z"/>
  <path class="st0" d="M151.3,69.2c-1,1.4-2.4,1.4-4,1.2,1.1-.6,2.3-1,3.6-1.5.1,0,.2.2.4.3Z"/>
  <path class="st0" d="M8,62.5c-.1-.8-.1-1.6-.1-2.4,0,1.9,1.1,2,2.5,1.9,1.1,0,2.2,0,3.4,0-.3.2-.7.5-1.1.5-1.5,0-3,0-4.7,0Z"/>
  <path class="st0" d="M262.2,22.3c0-.2,0-.4.2-.7.1-.2.1-.3.2-.3,0,0,0,0,.1,0,.6.7,1.1,1.4,1.6,2.3-1.7.8-1.4-.8-2.1-1.2Z"/>
  <path class="st0" d="M268,17.9c-.2-.2-.4-.5-.5-.7.3-.1.7-.4,1-.4.5,0,.9.3,1.4.4-.4.2-.8.5-1.2.7-.2,0-.4,0-.7,0Z"/>
  <path class="st0" d="M253.7,33.2c.1-.2.3-.3.5-.4.5.4,1,.9,1.3,1.4.2.3,0,.7,0,1.2-.7-.6-1.2-1.3-1.7-2.2Z"/>
  <path class="st0" d="M112.9,29.7c-1,0-2-.2-3.1-.5,1,0,2,.2,3.1.5Z"/>
  <path class="st0" d="M156.6,30.2c.2-.1.6-.3,1-.5,1.1,0,2.2-.1,3.4,0,.1.2.1.4.1.5-1.5,0-3,0-4.6,0Z"/>
  <path class="st0" d="M106.6,29.1c-.1.3-.4.7-.6.7-.7.1-1.5,0-2.4,0,.9-.3,1.9-.6,3-.8Z"/>
  <path class="st0" d="M272,21.4c.8.7,1.7,1.5,2.6,2.4-2,.2-2.2,0-2.6-2.4Z"/>
  <path class="st0" d="M267.9,8.4c-.5-.2-.9-.5-1.4-.8,0-1.3.8-.8,1.7-.8,0,.6-.2,1.1-.3,1.7Z"/>
  <path class="st0" d="M161.2,62.9c0-2,.2-4.1.3-6.4,0,2-.1,4.2-.3,6.4Z"/>
  <path class="st0" d="M224.7,38.7c1.2.7,1.7,2.1,1.2,3.4-.2-.3-.3-.6-.3-1,0-.3-.2-.4-.2-.6,0-.1-.1-.3-.2-.5,0-.2-.1-.3-.2-.4,0,0,0,0-.1-.3,0-.3,0-.4,0-.6Z"/>
  <path class="st0" d="M244.1,24c.3,0,.6,0,1,0,.4.9.7,1.7,1,2.7-.7-.8-1.3-1.7-2-2.6Z"/>
  <path class="st0" d="M249.4,28.1c-.7-.8-1.5-1.6-2.2-2.6.7.8,1.4,1.6,2.2,2.6Z"/>
  <path class="st0" d="M263.9,15c.4.3.8.7,1.3,1.1-.1.6-.4,1.2-.7,1.8-.3-.5-.6-1.1-1-1.7,0-.3.2-.7.4-1.1Z"/>
  <path class="st0" d="M183.4,29.2c-1,.1-2.1.2-3.3.1,1-.1,2.1-.2,3.3-.1Z"/>
  <path class="st0" d="M161.2,30.2c0-.1,0-.3,0-.5.2.3.6.7.6,1,0,1.6,0,3.2,0,5,0,.1-.1.1-.2,0-.1-1.9-.2-3.7-.3-5.5,0,0,0,0,0,0Z"/>
  <path class="st0" d="M151.5,31.2c-.5-.4-.9-.8-1.4-1.2.9.4,1.8.8,2.8,1.4-.4,0-.9,0-1.5-.2Z"/>
  <path class="st0" d="M263.5,46.6c-.4-.4-.8-.9-1.2-1.4.2-.3.5-.4.7-.6.2.6.3,1.3.5,2Z"/>
  <path class="st0" d="M249.8,13.9c-.8.2-1.7.3-2.7.2.8-.2,1.7-.2,2.7-.2Z"/>
  <path class="st0" d="M266.1,14.1c-.6,0-1.1-.2-1.7-.3,0-.3.1-.6.3-1,.5.2.9.5,1.4.9.1.2.1.3,0,.4Z"/>
  <path class="st0" d="M145.6,28.9c-.7.2-1.5.4-2.3.4,0-.1,0-.3,0-.3.8,0,1.5,0,2.4-.1Z"/>
  <path class="st0" d="M149.9,29.7c-.7,0-1.5-.2-2.3-.5.7,0,1.5.2,2.3.5Z"/>
  <path class="st0" d="M125.2,62c-.1-.8-.2-1.8-.1-2.8.1.9.2,1.7.1,2.8Z"/>
  <path class="st0" d="M196.4,39.8c0-.1.2-.1.3-.2.3.6.5,1.1.6,1.8-.3.1-.4.1-.6.1-.1-.5-.2-1.1-.3-1.8Z"/>
  <path class="st0" d="M45.5,31.5c0-.2,0-.4.1-.7.2.6.3,1.2.4,1.9-.2-.4-.3-.8-.5-1.2Z"/>
  <path class="st0" d="M250.4,29.3c.2.2.3.3.4.5-.5-.4-1-.9-1.4-1.5.3.2.6.6,1,1Z"/>
  <path class="st0" d="M226.8,62.5c1,0,2.2-.1,3.5-.1-1.1.1-2.2.1-3.5.1Z"/>
  <path class="st0" d="M272,18c0,.3,0,.7,0,1.1-.3,0-.6-.3-.9-.5.3-.2.5-.4.9-.6Z"/>
  <path class="st0" d="M267.3,10.9c0-.5.1-1.1.4-1.8,0,.5-.2,1.1-.4,1.8Z"/>
  <path class="st0" d="M60,56.8c0-.1.1-.1.3-.1.4.2.7.4,1,.5-.1.1-.3.3-.5.4-.3-.2-.6-.5-.8-.8Z"/>
  <path class="st0" d="M93.4,39.9c0,.5,0,1-.3,1.6,0-.5.1-1,.3-1.6Z"/>
  <path class="st0" d="M242.8,48.9c0-.5.3-1.1.6-1.7,0,.5-.3,1.1-.6,1.7Z"/>
  <path class="st0" d="M161.6,54.7c-.3,0-.5-.1-.7-.3.2-.2.3-.4.6-.6.1.2.2.5.1.8Z"/>
  <path class="st0" d="M247.2,14.9c.8,0,1.6,0,2.7,0-.8,0-1.7,0-2.7,0Z"/>
  <path class="st0" d="M89.1,45.3c-.1-.3-.2-.6-.2-1.1.1.3.2.6.2,1.1Z"/>
  <path class="st0" d="M196.7,41.7c.2-.1.3-.1.6-.1.2.2.3.5.3.8-.3-.1-.6-.4-.9-.7Z"/>
  <path class="st0" d="M154,32c-.3,0-.6-.2-1-.5.3,0,.6.2,1,.5Z"/>
  <path class="st0" d="M268.7,21.1c-.2,0-.5,0-.7-.1,0-.1,0-.2.1-.4.2.1.4.3.6.5Z"/>
  <path class="st0" d="M260.9,42.8c-.3-.2-.5-.4-.7-.8.5,0,1.2-.2.7.8Z"/>
  <path class="st0" d="M263.6,19.2c0,.2,0,.5-.2.8-.1.2-.3.3-.5.5.1-.4.3-.9.6-1.3Z"/>
  <path class="st0" d="M131.5,53.3c.2.2.4.4.6.8-.2-.2-.4-.4-.6-.8Z"/>
  <path class="st0" d="M14,31.9c0-.2,0-.5,0-.9.2.1.3.2.5.5-.1.2-.3.2-.5.4Z"/>
  <path class="st0" d="M242.2,50.2c0-.3.2-.6.4-1,0,.3-.2.6-.4,1Z"/>
  <path class="st0" d="M125.2,17.2c-.4,0-.9,0-1.4-.1.4,0,.9,0,1.4.1Z"/>
  <path class="st0" d="M178.2,56.8c-.3,0-.6-.1-1-.3.3,0,.6.1,1,.3Z"/>
  <path class="st0" d="M261.6,41c0,.1,0,.2,0,.4,0,0,0,0-.1,0,0-.1,0-.2,0-.4Z"/>
  <path class="st0" d="M143.1,29c.1,0,.1.1.1.2-.1,0-.3,0-.5,0-.3,0-.4,0-.7,0,.2,0,.6-.2,1.1-.2Z"/>
  <path class="st0" d="M79.9,55.3c0,.1-.2.3-.4.4,0-.1.2-.3.4-.4Z"/>
  <path class="st0" d="M45.8,34.8c0,.2.1.4.1.7,0-.2-.1-.4-.1-.7Z"/>
  <path class="st0" d="M265.1,55.9c.1.1.2.4.3.7-.1-.2-.2-.4-.3-.7Z"/>
  <path class="st0" d="M93.7,39.1c0,.2,0,.4,0,.6,0-.2,0-.4,0-.6Z"/>
  <path class="st0" d="M231.9,41.4c-.1-.2-.2-.4-.2-.8.1.2.2.4.2.8Z"/>
  <path class="st0" d="M114.1,30.1c-.2,0-.4,0-.7-.2.2,0,.4,0,.7.2Z"/>
  <path class="st0" d="M231.1,62.5c0,0,.3-.1.5-.2,0,0-.3.1-.5.2Z"/>
  <path class="st0" d="M266,59.3c0,0,.1.2.2.4,0,0-.1-.2-.2-.4Z"/>
  <path class="st0" d="M121.1,16.9c0,0-.3.1-.5.1,0-.1.2-.1.5-.1Z"/>
  <path class="st0" d="M155.6,73.3c0-.1,0-.3.2-.5,0,.1,0,.3-.2.5Z"/>
  <path class="st0" d="M16.5,35.9c.1,0,.2.1.1.2,0,0-.1-.2-.1-.2Z"/>
  <path class="st0" d="M274.9,62.4c0,0,.1-.1.2,0,0,0,0,0-.2,0Z"/>
  <path class="st0" d="M266.3,54.4c.1.1.2.3.2.6,0,0-.2,0-.2,0,0-.2,0-.4,0-.5,0,0,0,0,0,0Z"/>
  <path class="st0" d="M266.3,55.2c0-.1.1-.1.2-.1.1.1.2.3.2.6-.1,0-.3-.2-.4-.5Z"/>
  <path class="st0" d="M246.1,26.8c.1,0,.2.1.3.2-.2,0-.2,0-.3-.2Z"/>
  <path class="st0" d="M224.7,38.7c0,.1,0,.3,0,.5-.1,0-.2-.2-.3-.4.1,0,.2,0,.2,0,0,0,0,0,0,0Z"/>
  <path class="st0" d="M224.9,39.7c0,0,.2.1.2.3-.2,0-.2,0-.2-.3Z"/>
  <path class="st0" d="M225.3,40.6c.1,0,.2.2.2.4-.1,0-.2-.2-.2-.4Z"/>
  <path class="st0" d="M185.6,29.6s0,0,0,0c0,0,0,0,0,0Z"/>
  <path class="st0" d="M266.5,62.1c0,0,.2,0,.3.1,0,0-.2,0-.3-.1Z"/>
  <path class="st0" d="M43.7,35c0,0,0,0,.1,0,0,0,0,.2,0,.2,0,0,0-.1,0-.2Z"/>
  <path class="st0" d="M258.1,39c0,0-.1,0-.2-.2,0,0,.1,0,.2.2Z"/>
  <path class="st0" d="M265.2,11.6c0,0,0,.2,0,.3,0,0,0-.2,0-.3Z"/>
  <path class="st0" d="M224.7,38.7c0,0,0,0-.2,0,0,0-.2-.1-.2-.2.1,0,.2,0,.4.1Z"/>
  <path class="st0" d="M43.5,35.5c0,0,0-.1.1-.3,0,0,0,.1-.1.3Z"/>
  <path class="st0" d="M255.8,35.9c0,0-.2,0-.3-.3,0,0,.2,0,.3.3Z"/>
  <path class="st0" d="M262.2,44.7c0,0-.2,0-.4-.2,0,0,.2,0,.4.2Z"/>
  <path class="st0" d="M179,29.3c0,0-.1.1-.3.2,0,0,.1-.1.3-.2Z"/>
  <path class="st0" d="M257.7,25.4c0,0,0,.2-.2.4,0,0,0-.2.2-.4Z"/>
  <path class="st0" d="M265.7,58c0,0,.1.1.2.3,0,0-.1-.1-.2-.3Z"/>
  <path class="st0" d="M258,24.9c0,0,0,.2-.1.3,0,0,0-.2.1-.3Z"/>
  <path class="st0" d="M258.6,24.1c0,0,0,.2-.2.4,0,0,0-.2.2-.4Z"/>
  <path class="st0" d="M259.2,23.2c0,0,0,.2-.2.4,0,0,0-.2.2-.4Z"/>
  <path class="st0" d="M262.7,17.5c0,0,0,.2-.1.4,0,0,0-.2.1-.4Z"/>
  <path class="st0" d="M131.3,53c0,0,.1,0,.2.2-.1,0-.2,0-.2-.2Z"/>
  <path class="st0" d="M231.8,44.5c0,2.8,0,5.8,0,8.9,0-2.8-.1-5.8,0-8.9Z"/>
  <path class="st0" d="M231.8,58.9c0,0,0,.1,0,.3,0,0,0-.1,0-.3Z"/>
  <path class="st0" d="M172.7,40.3c2.5-4,5.9-6.2,10.8-5.4,1,.2,2,.6,3.1,1,2.5,1.7,4.4,3.7,5,6.8-.2.1-.4.2-.7.2-5.2,0-10.2,0-15.4,0-.6,0-1.1,0-1.6,0-.4,0-.8,0-1.2,0-.3,0-.4,0-.6-.1-.2-.2-.4-.3-.5-.4,0,0,0,0,0,0,0,0,0,0,.1,0,.3-.4.4-.9.5-1.3,0,0,0,0,0,0,.2-.2.3-.4.4-.6Z"/>
  <path class="st0" d="M191,42.9c.1,0,.3,0,.5,0-.4.2-.9.6-1.4.6-5.3,0-10.6,0-15.9,0-.6,0-1.2.1-2,.3-.8-.2-1.9-.3-.8-1.5.1,0,0,0,0,.2.2.2.3.3.5.4.2,0,.3,0,.7.1.5,0,.9,0,1.2,0,.5,0,.9,0,1.6,0,5,.1,9.9.2,14.7.2.2,0,.5-.1.7-.2Z"/>
  <path class="st0" d="M186.3,34.9c.4-1.2.8-1.3,2.4-.2-.9,0-1.5.1-2.3.2-.1,0-.1,0-.1,0Z"/>
  <path class="st0" d="M174.7,58.5c.5,0,.9,0,1.4,0,0,.2,0,.4,0,.5-.4-.1-.9-.3-1.3-.5,0-.1,0-.1,0-.1Z"/>
  <path class="st0" d="M185.5,33.8c0-.2,0-.4.1-.6,0,0,.2,0,.3.1-.1.2-.2.3-.4.4Z"/>
  <path class="st0" d="M174,54.8c.2,0,.3,0,.3.2-.1.1-.3.2-.4.2,0-.1,0-.3,0-.4Z"/>
  <path class="st0" d="M177.3,58s-.1,0-.2,0c0,0,0,0,.2,0Z"/>
  <path class="st0" d="M139.6,53.5c-.7-.9-1.4-1.7-2.2-2.7-.5-.8-1-1.5-1.4-2.1,0,0,0,0,0-.1,0-.6,0-1.1,0-1.6-1.2-7.8,6.5-14.3,14.3-10.5,2.1,1.4,3.7,3.2,4.6,5.5,2.6,6.4-3,14.8-11.3,13.4-.9-.2-1.6-.4-2.3-.5,0,0,0,0-.2-.2-.4-.2-.7-.4-1-.6,0,0,0,0,0,0-.1-.1-.2-.2-.3-.3,0-.1,0-.2-.2-.2Z"/>
  <path class="st0" d="M141.3,54.9c.7,0,1.3.2,2.1.4,0,.1,0,.2,0,.3-.7-.2-1.4-.4-2.2-.7Z"/>
  <path class="st0" d="M140.1,54.2c.3,0,.6.2,1,.4-.3,0-.6-.2-1-.4Z"/>
  <path class="st0" d="M139.8,53.8c0,0,.2,0,.3.2,0,0-.2,0-.3-.2Z"/>
  <path class="st0" d="M41.8,37.8c-.7,1.9-1.5,3.9-2.5,5.9-.9.2-1.6.3-2,.4-1.1-.4-1.9-.6-2.7-.9.8-2.1,1.5-4.2,2.3-6.3.2-.5.5-.9.8-1.4.4.6.8,1.3,1.2,2,.6.2,1.8-1.3,2.8.4Z"/>
  <path class="st0" d="M64.2,42.9c-.1,0-.3,0-.5,0-.3,0-.5,0-.7-.2,1.1-4.9,5.6-8.4,10.9-7.8,4.1.4,8,3.8,8.5,7.8-6.2.1-12.2.2-18.1.2Z"/>
  <path class="st0" d="M65.1,47.1c-.8.2-1.6.2-2.4.3-.2.9-.4,1.8-.3,2.6.1.8.6,1.5.9,2.4-.9,0-.9.6-1,1.3,0,.3-.4.8-.6.9-.3,0-.8-.3-.9-.6-.3-.6-.4-1.3-.6-1.9-.2-.5-.5-1-.7-1.5-.2,0-.3,0-.5,0-.1.5-.2,1.1-.4,1.7-.4-1-1-2.1-1.2-3.2-.2-1.4,0-2.8,0-4.4.6.2,1.2.5,1.8,1,1.1.9,3,.5,3.6-1,.2-.2.3-.3.5-.4.7.8,1.3,1.7,2,2.7Z"/>
  <path class="st0" d="M64.3,43c5.9-.1,11.9-.2,18.1-.2.1.1.1.3.1.5-5.5.1-11,.1-16.6,0-.5,0-1.1-.2-1.7-.4Z"/>
  <path class="st0" d="M62.6,44.6c-.3-.3-.7-.7-1-1.1.2-.1.4-.2.6-.3.2.4.3.9.5,1.4Z"/>
  <path class="st0" d="M63.5,43.2c0,0,0,.1-.1.2,0,0,0-.1.1-.2Z"/>
  <path class="st0" d="M161.1,30.3c.2,1.7.2,3.4.3,5.4-.1-1.7-.3-3.5-.3-5.4Z"/>
  <path class="st0" d="M155.9,32.6c0-.6,0-1.3.1-2,0,.6,0,1.3-.1,2Z"/>
  <path class="st0" d="M118.9,48.2c0,.2-.2.5-.3.9-2.5,6.3-7.9,9.2-13.4,7.2,0,0,0,0,0,0-.6-.3-1.1-.5-1.7-.8-.2,0-.3,0-.5,0,0,0,0,0,0,0-.1-.1-.2-.2-.3-.2,0,0,0,0,0-.1-1.2-1.5-2.3-2.9-3.5-4.4,0-.3-.2-.4-.3-.6,0,0,0-.2,0-.2,0-2-.6-4-.2-5.9,1.1-4.6,4.9-8.6,10.5-8.5,4.4,0,8.9,3.9,9.6,8.3.1.4.2.5.3.7,0,1,0,1.9,0,3.1,0,.4,0,.5,0,.7Z"/>
  <path class="st0" d="M119.7,31.2c-.1-1.7-.1-3.4,0-5.3.2.3.5.6.6,1.1.3,1.5.5,3,.7,4.5,0,.2.3.3.8.8,0-1.5.1-2.7.2-3.8.2,0,.3,0,.5,0,1.7,1.8-.1,4.4,1.6,6.5v-6.1h.7c0,2.5,0,4.9-.1,7.5-.3.6-.5,1.1-.5,1.6,0,2.4,0,4.7,0,7.1,0,.3-.1.7-.2,1h-.4c-.1-1.8-.2-3.6-.4-5.3,0-.6-.4-1.1-.6-1.7-.2.6-.6,1.2-.6,1.8-.1.9,0,1.8,0,2.7-.2,0-.5,0-.7,0-.1-1.3-.3-2.6-.4-4-.9.2-1.6.4-2.3.7-1.5-2.1-3.3-4-5.9-4.9-.7-.3-1.1-1.5-1.6-2.3,0-.1.2-.7.3-.7.3,0,.7,0,1,.2,1.5.8,1.5.8,2.5-.9.6.6,1,1.2,1.5,1.6.3.3.7.6,1.1.6.8,0,1.5-.1,2.6-.3,0-.8-.1-1.5-.3-2.3Z"/>
  <path class="st0" d="M98.7,49.7c.1,0,.2.1.1.2,0,.4.2.7.3,1.1.4.7.6,1.5,1.1,1.9.7.8,1.6,1.3,2.5,2,0,0,0,0,0,0,.1.1.2.2.3.2,0,0,0,0,0,0,.2.2.4.2.6.4.6.2,1.1.3,1.6.4,0,0,0,0,0,.1,0,.3,0,.4,0,.6-.4.3-.8.6-1.2.9.4.2.9.6,1.4.7.4.1.8,0,1.3.4-.3,0-.7.2-1,.2-.7,0-1.4,0-1.4,1,0,.2-.9.6-1.1.5-1-.5-2-1.1-2.9-1.7-.4-.3-.6-.8-1.1-1.4-.2.5-.3.8-.5,1.2-3.6-2.7-5.2-6.5-5.2-11.1,1.3-.2,1.1.6,1.1,1.3,0,1.7.3,2,2,1.8.2.4.4.7.8,1.6.4-1.2.7-1.9,1-2.7.1,0,.3,0,.5,0M96.2,53.8v-1.4c-.2,0-.3,0-.5.1,0,.4.2.9.2,1.3,0,0,0,0,.3,0Z"/>
  <path class="st0" d="M118.4,40.4c.7-.3,1.5-.5,2.3-.8.2,1.4.3,2.7.4,4,.2,0,.5,0,.7,0,0-.9,0-1.8,0-2.7,0-.6.4-1.2.6-1.8.2.6.5,1.1.6,1.7.2,1.7.3,3.5.4,5.3h.4c0-.3.2-.6.2-1,0-2.4,0-4.7,0-7.1,0-.5.2-.9.5-1.4.1,4.8.1,9.6.1,14.6-.4.4-.8.8-1.2,1.1-.3-.8-.6-1.6-.9-2.3h-.5c-.2.8-.3,1.5-.5,2.2-.1,0-.2,0-.3,0-.5-1.5-.9-2.9-1.5-4.4,0-2.5,0-5.1-1.4-7.5Z"/>
  <path class="st0" d="M98.2,49.6c-.3.9-.5,1.6-1,2.8-.5-.8-.6-1.2-.8-1.6-1.7.2-1.9-.1-2-1.8,0-.7.2-1.6-1.1-1.5-.1-.8-.1-1.7-.1-2.7,1.2-.5,2.3-.8,3.3.4.2.3.8.3,1.3.4.1,1.2.3,2.5.5,4Z"/>
  <path class="st0" d="M105.3,57c-.1-.2-.1-.3,0-.6,5.5,1.9,10.9-1,13.4-7.2.2,0,.3.2.4.5-.8,2.8-2.5,4.8-4.8,6.3-2.7,1.7-5.7,2-8.9,1Z"/>
  <path class="st0" d="M97.4,42.2c.2-.2.4-.4.6-.5,0,.5.2,1,.3,1.5-.1,0-.2,0-.4.1-.2-.3-.3-.7-.5-1.1Z"/>
  <path class="st0" d="M119.1,44.3c-.1-.1-.2-.3-.3-.5.1,0,.2.3.3.5Z"/>
  <path class="st0" d="M119,48.2c0-.1,0-.3,0-.5,0,.1,0,.3,0,.5Z"/>
  <path class="st0" d="M119.4,32.6s0,0,0,0Z"/>
  <path class="st0" d="M172.2,41c0,.4-.2.8-.4,1.3,0-.4.2-.8.4-1.3Z"/>
  <path class="st0" d="M172.6,40.4c0,.2,0,.4-.2.6,0-.2,0-.4.2-.6Z"/>
  <path class="st0" d="M114.3,60.7c-.8,0-1.5,0-2.3,0,0-.2,0-.5,0-.7.7.1,1.5.3,2.2.6,0,.1,0,.1,0,.1Z"/>
  <path class="st0" d="M139.4,69.9c.1,0,.3,0,.5,0,0,.2,0,.6,0,.7-1,.9-3.9.7-4.9-.3-.3-.3-.9-.4-1.5-.5-.9-1.1-1.9-2.2-2.5-3.5-.6-1.2,0-1.8,1.4-1.8.6,0,1.3,0,1.9,0,1.1,0,1.8.1,2.1,1.4.2.8,1.1,1.5,1.7,2.4,0,.7,0,1.2-.2,1.9.7-.2,1.1-.2,1.6-.3Z"/>
  <path class="st0" d="M85.9,37.2c.3.3.5.6.7,1.1-.3-.3-.5-.7-.7-1.1Z"/>
  <path class="st0" d="M208.5,60.6s0,0,0,0Z"/>
  <path class="st0" d="M34.5,43.2c.9.2,1.7.5,2.8.8.4,0,1.1-.2,1.9-.3-.5,1.6-1.1,3.2-1.8,4.9-.5.4-1,.7-1.6,1-.4,0-1.2-.2-1.4,0-.3.4-.1,1.1-.2,1.7,0,.6-.3,1.2-.4,1.7-.4-.4-.9-.8-1-1.3-.3-1.1-1-.8-1.8-.6,1.1-2.7,2.3-5.4,3.6-8.1Z"/>
  <path class="st0" d="M32.6,59.2c0,1.3-.4,2.6-2,2.8-2.2.2-2.9-.4-3.5-2.7.8-.2,1.6-.2,2.1.8.4.9.9.7,1.6.2.5-.5,1.2-.7,1.9-1.1Z"/>
  <path class="st0" d="M46.3,53.2c0-1.7,0-3.4,0-5.2.5-.7.9-1.2,1.4-1.8.1,1.7.2,3.5.3,5.3.2,0,.4,0,.6,0,0-1.2.1-2.3.2-3.6,1.5.3,1.4,1.4,1.4,2.3,0,.8.1,1.3,1.2.8.1.8.1,1.7.1,2.7,0,2.1,0,4.1-.1,6.3-.9.1-1.6.2-2.3.1-1.3,0-2-.5-2-2,0-1.7,0-3.3.1-5,.2-.2.3-.5.4-.7-.1,0-.2,0-.3-.1,0,.3-.1.5-.3.8-.4,0-.6,0-.8,0Z"/>
  <path class="st0" d="M136,48.8c.4.5.9,1.2,1.3,2-.2.1-.7.2-.7,0-.2-.6-.4-1.3-.6-2Z"/>
  <path class="st0" d="M243.9,43.8s0,0,0,0c0,0,0,0,0,0Z"/>
  <path class="st0" d="M139.4,69.8c-.4.2-.9.3-1.6.4.1-.7.2-1.2.3-1.8.4.3.9.8,1.3,1.3Z"/>
  <path class="st0" d="M259.1,26.2c0,0,0,.1,0,.2,0,0-.1,0-.1-.2,0,0,0,0,.2,0Z"/>
  <path class="st0" d="M262.4,21.3c0,0,0,.1,0,.2,0,0,0-.2,0-.2Z"/>
  <path class="st0" d="M47.2,53.2c0,1.7,0,3.3,0,5,0,1.5.7,1.9,2,2,.7,0,1.4,0,2.3,0,.1.5,0,.9,0,1.6-1.4,0-2.7,0-4,0-.8,0-1.3-.4-1.3-1.4,0-1-.2-2.1-.3-3.2.1-1.3.2-2.4.3-3.7.2-.1.5-.1.8-.1.1,0,.1,0,.1,0Z"/>
  <path class="st0" d="M266.2,54.5c0,0,0,.2,0,.5,0,0-.1-.2,0-.5Z"/>
  <path class="st0" d="M190.9,42.8c-.1.1-.3.3-.6.3-4.8,0-9.6,0-14.5-.1,4.9-.1,10-.2,15.1-.1Z"/>
  <path class="st0" d="M173.9,42.9c-.2,0-.6.1-1,0,.3,0,.6-.1,1,0Z"/>
  <path class="st0" d="M172.1,42.7c-.1,0-.3-.1-.5-.3.2,0,.3.1.5.3Z"/>
  <path class="st0" d="M102.7,54.9c-.8-.5-1.7-1.1-2.5-1.9-.5-.5-.7-1.2-1.1-2,0-.2,0-.3,0-.3,1.2,1.4,2.3,2.8,3.5,4.3Z"/>
  <path class="st0" d="M105.1,56.2c-.4,0-1-.1-1.5-.4,0-.2,0-.3,0-.3.5.2,1,.4,1.6.7Z"/>
  <path class="st0" d="M99.2,50.6c0,0,0,.3,0,.3-.1-.2-.3-.5-.3-.8.2,0,.3.2.3.5Z"/>
  <path class="st0" d="M103.5,55.4c0,0,0,.2,0,.2-.2,0-.3,0-.5-.3.1,0,.2,0,.4,0Z"/>
  <path class="st0" d="M103,55.2c0,0-.2,0-.3-.1,0,0,.2,0,.3.1Z"/>
  <path class="st0" d="M96,53.8c0-.4-.2-.9-.3-1.3.2,0,.3,0,.5-.1,0,.5,0,.9-.1,1.4-.1,0-.1,0-.1,0Z"/>
  <path class="st0" d="M96,53.8s0,0,0,0c0,0,0,0,0,0Z"/>
  <path class="st0" d="M47.2,53.2c0-.3.1-.5.2-.8.1,0,.2,0,.3.1,0,.2-.2.4-.4.7-.1,0-.1,0-.1,0Z"/>
</svg>