<svg width="122" height="20" viewBox="0 0 122 20" fill="none" xmlns="http://www.w3.org/2000/svg">
<g clip-path="url(#clip0)">
<path d="M37.8212 14.4313V18.4125H23.2168V1.57739H37.6786V5.53415H28.061V7.84781H36.9424V11.9023H28.061V14.4291L37.8212 14.4313Z" fill="white"/>
<path d="M63.5595 1.57739V18.4125H58.7629V9.39765L55.3204 18.4125H49.9766L46.533 9.39765V18.4125H41.7363V1.57739H48.2188L52.6595 12.9536L57.1002 1.57739H63.5595Z" fill="white"/>
<path d="M75.8101 13.2867H72.4848V18.4125H67.6406V1.57739H75.8333C80.4874 1.57739 83.0521 3.62905 83.0521 7.42038C83.0521 11.2117 80.4642 13.2867 75.8101 13.2867ZM75.9052 5.53415H72.4848V9.30884H75.9527C77.4716 9.30884 78.1128 8.83256 78.1128 7.42149C78.1128 6.01043 77.4241 5.53415 75.9052 5.53415Z" fill="white"/>
<path d="M86.207 1.57739H91.0512V11.2128C91.043 12.1024 91.3362 12.9684 91.8825 13.6686C92.4287 14.3847 93.3783 14.7421 94.6849 14.7421C96.0115 14.7421 96.9644 14.3847 97.5105 13.6686C98.0569 12.9684 98.3501 12.1024 98.3419 11.2128V1.57739H103.187V10.8542C103.187 13.5735 102.403 15.577 100.836 16.8648C99.2881 18.1527 97.2264 18.7966 94.686 18.7966C92.1457 18.7966 90.0784 18.1527 88.5352 16.8648C86.9919 15.577 86.2081 13.5731 86.2081 10.8542L86.207 1.57739Z" fill="white"/>
<path d="M107.529 13.3589C108.405 13.7728 109.32 14.1003 110.259 14.3369C111.293 14.5931 112.353 14.7291 113.418 14.7422C115.342 14.7422 116.292 14.4313 116.292 13.8118C116.292 13.1202 115.27 12.7871 113.394 12.4052C113.089 12.3662 112.787 12.3024 112.492 12.2142C108.55 11.3083 106.342 10.2159 106.271 6.53779C106.271 4.74926 106.983 3.41369 108.432 2.53219C109.881 1.65069 111.756 1.19995 114.059 1.19995C116.458 1.19995 119.144 1.79613 121.064 2.82195L119.517 6.37459C117.783 5.68294 115.551 5.27772 113.936 5.27772C112.155 5.27772 111.158 5.65962 111.158 6.32685C111.158 7.01851 112.108 7.30494 113.841 7.61469L114.53 7.7579C116.643 8.21086 118.282 8.83147 119.446 9.66523C120.609 10.4768 121.202 11.6925 121.202 13.3145C121.202 15.1507 120.466 16.534 118.992 17.44C117.517 18.3459 115.597 18.7999 113.222 18.7999C111.898 18.7982 110.581 18.6217 109.303 18.2748C107.977 17.9173 106.833 17.4644 105.908 16.8915L107.529 13.3589Z" fill="white"/>
<path d="M2.14352 1.57739H0V5.51083H2.14352V1.57739Z" fill="white"/>
<path d="M7.19795 1.57739H3.28125V5.51083H7.19795V1.57739Z" fill="white"/>
<path d="M8.81641 5.51083V18.4147H13.6606V5.51083H16.4365V1.57739H8.81641V5.51083Z" fill="white"/>
<path d="M19.1924 1.57739H17.5762V5.51083H19.1924V1.57739Z" fill="white"/>
</g>
<defs>
<clipPath id="clip0">
<rect width="121.2" height="20" fill="white"/>
</clipPath>
</defs>
</svg>
