<svg xmlns="http://www.w3.org/2000/svg" xmlns:xlink="http://www.w3.org/1999/xlink" width="14" height="13" viewBox="0 0 14 13"><defs><path id="rxn1a" d="M1265.02 34.92a3.03 3.03 0 0 0 1.23-1.7 5.3 5.3 0 0 1-1.78.75c-.5-.6-1.23-.97-2.04-.97-1.54 0-2.8 1.37-2.8 3.06 0 .24.03.48.08.7a7.73 7.73 0 0 1-5.76-3.2 3.28 3.28 0 0 0 .86 4.1 2.62 2.62 0 0 1-1.26-.4v.05a3 3 0 0 0 2.24 3 2.5 2.5 0 0 1-1.26.05 2.84 2.84 0 0 0 2.6 2.13 5.3 5.3 0 0 1-4.13 1.27 7.42 7.42 0 0 0 4.28 1.38c5.15 0 7.96-4.67 7.96-8.72l-.01-.4a6 6 0 0 0 1.4-1.58c-.5.24-1.05.4-1.61.48z"/></defs><g><g transform="translate(-1253 -33)"><use fill="#39abd1" xlink:href="#rxn1a"/></g></g></svg>