<?xml version="1.0" encoding="UTF-8"?>
<svg xmlns="http://www.w3.org/2000/svg" width="32" height="32" viewBox="0 0 32 32" fill="none">
  <g id="Indicators/Success">
    <g id="Group">
      <path id="Combined Shape" fill-rule="evenodd" clip-rule="evenodd" d="M16 32C24.8366 32 32 24.8366 32 16C32 7.16344 24.8366 0 16 0C7.16344 0 0 7.16344 0 16C0 24.8366 7.16344 32 16 32ZM24.3949 9.04481C23.6722 8.56695 22.6989 8.76524 22.2209 9.4877L14.5323 21.1042L9.54995 16.3826L9.36999 16.2355C8.74384 15.7965 7.87389 15.8703 7.33197 16.4418C6.73586 17.0705 6.76239 18.0632 7.39123 18.6591L13.7318 24.6677L13.9024 24.8083C14.6117 25.3143 15.623 25.1453 16.1197 24.3947L24.838 11.2182L24.9517 11.0155C25.2756 10.3229 25.0519 9.47923 24.3949 9.04481Z" fill="#24A878"></path>
    </g>
  </g>
</svg>
