<?xml version="1.0" encoding="UTF-8"?>
<svg xmlns="http://www.w3.org/2000/svg" width="32" height="32" viewBox="0 0 32 32" fill="none">
  <g id="Report specific/Dose up">
    <circle id="Oval" cx="16" cy="16" r="16" fill="#206EF3"></circle>
    <g id="Group">
      <path id="Path" d="M15.9609 6.80444C16.5885 6.80444 17.1081 7.20305 17.1974 7.72252L17.2109 7.88171V25.7272C17.2109 26.3221 16.6513 26.8044 15.9609 26.8044C15.3333 26.8044 14.8138 26.4058 14.7245 25.8864L14.7109 25.7272V7.88171C14.7109 7.28675 15.2706 6.80444 15.9609 6.80444Z" fill="white"></path>
      <path id="Path_2" d="M15.163 5.36612C15.5969 4.9322 16.2705 4.88399 16.7576 5.22148L16.9308 5.36612L26.8303 15.2656C27.3184 15.7538 27.3184 16.5452 26.8303 17.0334C26.3963 17.4673 25.7228 17.5155 25.2356 17.178L25.0625 17.0334L15.163 7.13388C14.6748 6.64573 14.6748 5.85427 15.163 5.36612Z" fill="white"></path>
      <path id="Path_3" d="M16.8292 5.36612C16.3953 4.9322 15.7217 4.88399 15.2345 5.22148L15.0614 5.36612L5.16193 15.2656C4.67378 15.7538 4.67378 16.5452 5.16193 17.0334C5.59585 17.4673 6.26941 17.5155 6.75658 17.178L6.9297 17.0334L16.8292 7.13388C17.3174 6.64573 17.3174 5.85427 16.8292 5.36612Z" fill="white"></path>
    </g>
  </g>
</svg>
