<?xml version="1.0" encoding="UTF-8"?>
<svg xmlns="http://www.w3.org/2000/svg" width="32" height="32" viewBox="0 0 32 32" fill="none">
  <g id="Indicators/Error">
    <g id="Group">
      <g id="Fail">
        <path id="Combined Shape" fill-rule="evenodd" clip-rule="evenodd" d="M16 32C24.8366 32 32 24.8366 32 16C32 7.16344 24.8366 0 16 0C7.16344 0 0 7.16344 0 16C0 24.8366 7.16344 32 16 32ZM9.30581 7.27727L9.10715 7.11129L8.91356 6.99859C8.37975 6.74178 7.71987 6.83467 7.27727 7.27727C6.7171 7.83743 6.7171 8.74564 7.27727 9.30581L13.9717 16.0006L7.27727 22.6942L7.11129 22.8928C6.72402 23.4519 6.77934 24.2248 7.27727 24.7227C7.83743 25.2829 8.74564 25.2829 9.30581 24.7227L15.9983 18.0294L22.6942 24.7227L22.8928 24.8887C23.4519 25.276 24.2248 25.2207 24.7227 24.7227C25.2829 24.1626 25.2829 23.2544 24.7227 22.6942L18.0271 16.0006L24.7227 9.30581L24.8887 9.10715C25.276 8.54812 25.2207 7.77519 24.7227 7.27727C24.1626 6.7171 23.2544 6.7171 22.6942 7.27727L15.9983 13.974L9.30581 7.27727Z" fill="#BE2F38"></path>
      </g>
    </g>
  </g>
</svg>
