<?xml version="1.0" encoding="UTF-8"?>
<svg xmlns="http://www.w3.org/2000/svg" width="32" height="32" viewBox="0 0 32 32" fill="none">
  <g id="Report specific/Additional consideration">
    <circle id="Oval" cx="16" cy="16" r="16" fill="#F5A623"></circle>
    <g id="Group">
      <path id="Path 2" d="M18.1059 18.1759C18.5058 17.7004 19.1845 17.5977 19.7014 17.9059L19.8671 18.0238L25.5361 22.7915C26.0645 23.2358 26.1326 24.0243 25.6882 24.5527C25.2883 25.0282 24.6096 25.1309 24.0927 24.8228L23.927 24.7048L18.258 19.9372C17.7296 19.4928 17.6615 18.7043 18.1059 18.1759Z" fill="white"></path>
      <path id="Oval_2" fill-rule="evenodd" clip-rule="evenodd" d="M21 14C21 9.85786 17.6421 6.5 13.5 6.5C9.35786 6.5 6 9.85786 6 14C6 18.1421 9.35786 21.5 13.5 21.5C17.6421 21.5 21 18.1421 21 14ZM8.5 14C8.5 11.2386 10.7386 9 13.5 9C16.2614 9 18.5 11.2386 18.5 14C18.5 16.7614 16.2614 19 13.5 19C10.7386 19 8.5 16.7614 8.5 14Z" fill="white"></path>
    </g>
  </g>
</svg>
