<?xml version="1.0" encoding="UTF-8"?>
<svg xmlns="http://www.w3.org/2000/svg" width="32" height="32" viewBox="0 0 32 32" fill="none">
  <g id="Report specific/Dose down">
    <circle id="Oval" cx="16" cy="16" r="16" fill="#206EF3"></circle>
    <g id="Group">
      <path id="Path" d="M16.0391 25C15.4115 25 14.8919 24.6014 14.8026 24.0819L14.7891 23.9227L14.7891 6.07727C14.7891 5.48231 15.3487 5 16.0391 5C16.6667 5 17.1862 5.3986 17.2755 5.91808L17.2891 6.07727L17.2891 23.9227C17.2891 24.5177 16.7294 25 16.0391 25Z" fill="white"></path>
      <path id="Path_2" d="M16.837 26.4383C16.4031 26.8722 15.7295 26.9205 15.2424 26.583L15.0692 26.4383L5.16975 16.5388C4.68159 16.0507 4.68159 15.2592 5.16975 14.7711C5.60366 14.3371 6.27722 14.2889 6.76439 14.6264L6.93751 14.7711L16.837 24.6706C17.3252 25.1587 17.3252 25.9502 16.837 26.4383Z" fill="white"></path>
      <path id="Path_3" d="M15.1708 26.4383C15.6047 26.8722 16.2783 26.9205 16.7655 26.583L16.9386 26.4383L26.8381 16.5388C27.3262 16.0507 27.3262 15.2592 26.8381 14.7711C26.4042 14.3371 25.7306 14.2889 25.2434 14.6264L25.0703 14.7711L15.1708 24.6706C14.6826 25.1587 14.6826 25.9502 15.1708 26.4383Z" fill="white"></path>
    </g>
  </g>
</svg>
