<svg width="165" height="21" viewBox="0 0 165 21" fill="none" xmlns="http://www.w3.org/2000/svg">
<path d="M30.9989 14.1206V17.3698H19.0299V3.62658H30.8835V6.86135H23.0004V8.74739H30.2813V12.0579H23.0004V14.1206H30.9989Z" fill="white"/>
<path d="M52.0988 3.62658V17.3698H48.1644V10.0132L45.3444 17.3698H40.9628L38.1428 10.0132V17.3698H34.2084V3.62658H39.524L43.1626 12.9126L46.8013 3.62658H52.0988Z" fill="white"/>
<path d="M62.2142 6.86135H59.4122V9.93744H62.2539C63.498 9.93744 64.0246 9.54797 64.0246 8.40119C64.0246 7.25442 63.4584 6.86495 62.2142 6.86495V6.86135ZM62.1349 13.1866H59.4086V17.3698H55.4382V3.62658H62.1529C65.9683 3.62658 68.0707 5.29986 68.0707 8.39398C68.0707 11.4881 65.9503 13.183 62.1349 13.183V13.1866Z" fill="white"/>
<path d="M70.66 3.62658H74.6304V11.4917C74.6304 12.249 74.8648 12.9126 75.312 13.4968C75.7591 14.081 76.5381 14.3731 77.6091 14.3731C78.6802 14.3731 79.4771 14.081 79.9243 13.4968C80.3715 12.9126 80.6059 12.2526 80.6059 11.4917V3.62658H84.5763V11.1996C84.5763 13.4174 83.9344 15.0546 82.6506 16.104C81.3848 17.1534 79.6935 17.68 77.6091 17.68C75.5247 17.68 73.8334 17.1534 72.5676 16.104C71.3019 15.0546 70.66 13.4174 70.66 11.1996V3.62658Z" fill="white"/>
<path d="M88.1356 13.2443C88.7379 13.5364 89.4771 13.8105 90.3751 14.0413C91.2911 14.2541 92.1457 14.3731 92.9643 14.3731C94.5403 14.3731 95.3192 14.1206 95.3192 13.6158C95.3192 13.0496 94.4826 12.7791 92.9427 12.469C92.7299 12.451 92.4955 12.3897 92.2034 12.3139C88.9723 11.5747 87.162 10.6803 87.1043 7.67995C87.1043 6.21944 87.6885 5.13037 88.8749 4.40913C90.0613 3.68789 91.6012 3.32005 93.4872 3.32005C95.3733 3.32005 97.6524 3.80689 99.2283 4.64353L97.9625 7.54292C96.5417 6.97674 94.7133 6.64858 93.3899 6.64858C91.9294 6.64858 91.1144 6.95871 91.1144 7.50685C91.1144 8.055 91.8933 8.30383 93.3142 8.55626L93.8803 8.67166C95.6113 9.0431 96.9564 9.54797 97.9085 10.2295C98.8605 10.8931 99.3473 11.8848 99.3473 13.2083C99.3473 14.7084 98.7451 15.8372 97.537 16.5765C96.3325 17.3157 94.753 17.6872 92.8093 17.6872C91.7599 17.6872 90.6888 17.5501 89.5961 17.258C88.5071 16.9659 87.5731 16.5945 86.8122 16.1293L88.1356 13.2479V13.2443Z" fill="white"/>
<path d="M0 6.83971H1.75622V3.62658H0V6.83971Z" fill="white"/>
<path d="M2.69021 6.83971H5.89974V3.62658H2.69021V6.83971Z" fill="white"/>
<path d="M7.22685 17.3698H11.1973V6.83971H13.4728V3.62658H7.22685V17.3698Z" fill="white"/>
<path d="M14.4069 3.62658V6.83971H15.7303V3.62658H14.4069Z" fill="white"/>
<path d="M108.622 0.5H110.144V20.5H108.622V0.5Z" fill="white"/>
<path d="M119.167 10.518C119.167 6.21583 121.677 3.31644 125.608 3.31644C129.539 3.31644 132.012 6.21583 132.012 10.518C132.012 14.8202 129.521 17.6799 125.608 17.6799C121.695 17.6799 119.167 14.8202 119.167 10.518ZM129.481 10.518C129.481 7.18951 127.923 5.47656 125.608 5.47656C123.293 5.47656 121.695 7.18951 121.695 10.518C121.695 13.8466 123.271 15.5018 125.608 15.5018C127.945 15.5018 129.481 13.8069 129.481 10.518Z" fill="white"/>
<path d="M148.558 3.62658V17.3698H146.145L139.275 7.22918V17.3698H136.92V3.62658H139.373L146.203 13.7095V3.62658H148.558Z" fill="white"/>
<path d="M163.992 5.7903H156.459V9.2162H163.329V11.3763H156.459V15.2097H164.068V17.3698H154.046V3.62658H163.992V5.7903Z" fill="white"/>
</svg>
